<?xml version="1.0" standalone="yes"?>
<svg xmlns="http://www.w3.org/2000/svg" width="500" height="500">
<path style="fill:#010101; stroke:none;" d="M0 0L0 500L500 500L500 0L0 0z"/>
<path style="fill:#4b4842; stroke:none;" d="M250.667 128.333L251.333 128.667L250.667 128.333z"/>
<path style="fill:#a99059; stroke:none;" d="M252.667 128.333L253.333 128.667L252.667 128.333z"/>
<path style="fill:#e2bf6b; stroke:none;" d="M250 129L250 130L255 129L249 133L249 130L238 136L239 139C231.715 135.112 215.666 132.448 208 136L210 134L210 133L206 133L207 136L204 135L208 142L209 142L208 139L209 137L215 147L211 140L209 144L213 145L221 164L224 168L226 166L228 171L225 169L227 173L231 174L228 174L229 177L232 175C239.54 180.486 252.959 170.054 258 176C270.461 173.033 283.642 170.994 286 155C292.23 151.594 295.974 144.87 294 138L273 139.361L256 131L256 130L258 130L250 129z"/>
<path style="fill:#a99059; stroke:none;" d="M255.667 128.333L256.333 128.667L255.667 128.333z"/>
<path style="fill:#4b4842; stroke:none;" d="M257 128L258 129L257 128M248 129L249 130L248 129z"/>
<path style="fill:#a99059; stroke:none;" d="M249 129L250 130L249 129z"/>
<path style="fill:#e4cd8b; stroke:none;" d="M254 129L249 133L254 129z"/>
<path style="fill:#a99059; stroke:none;" d="M258 129L259 130L258 129z"/>
<path style="fill:#4b4842; stroke:none;" d="M259 129L260 130L259 129M246 130L247 131L246 130z"/>
<path style="fill:#a99059; stroke:none;" d="M247 130L248 131L247 130z"/>
<path style="fill:#e4cd8b; stroke:none;" d="M256 130L256 131L259 131L256 130z"/>
<path style="fill:#a99059; stroke:none;" d="M260 130C264.935 137.839 272.196 139.994 281 140L281 139C271.875 138.923 267.199 135.007 260 130z"/>
<path style="fill:#4b4842; stroke:none;" d="M261 130L262 131L261 130z"/>
<path style="fill:#a99059; stroke:none;" d="M245 131L246 132L245 131z"/>
<path style="fill:#e4cd8b; stroke:none;" d="M259 131L260 135L259 135L259 133L258 133L259 136L260 136L259 131z"/>
<path style="fill:#4b4842; stroke:none;" d="M262 131L263 132L262 131M205 132L205 133L209 133L205 132M243 132L244 133L243 132z"/>
<path style="fill:#a99059; stroke:none;" d="M244 132L245 133L244 132z"/>
<path style="fill:#e4cd8b; stroke:none;" d="M247 132L248 133L247 132M256 132L253 135L257 141L260 141L260 137L259 137L259 139L258 139L255 135L256 132z"/>
<path style="fill:#4b4842; stroke:none;" d="M263 132L264 133L263 132z"/>
<path style="fill:#a99059; stroke:none;" d="M204 133L204 135L206 133L204 133M210 133L210 134L216 134L210 133z"/>
<path style="fill:#4b4842; stroke:none;" d="M216.667 133.333L217.333 133.667L216.667 133.333M242 133L243 134L242 133z"/>
<path style="fill:#e4cd8b; stroke:none;" d="M251 133L252 134L251 133z"/>
<path style="fill:#4b4842; stroke:none;" d="M264 133L265 134L264 133M203.333 134.667L203.667 135.333L203.333 134.667z"/>
<path style="fill:#e4cd8b; stroke:none;" d="M205 134L207 136L207 134L205 134M208 136L211 135L208 136M214 134L214 135L217 135L214 134z"/>
<path style="fill:#a99059; stroke:none;" d="M219 134L219 135L222 135L219 134z"/>
<path style="fill:#4b4842; stroke:none;" d="M222.667 134.333L223.333 134.667L222.667 134.333M241 134L242 135L241 134z"/>
<path style="fill:#e4cd8b; stroke:none;" d="M244 136L247 135L244 136z"/>
<path style="fill:#4b4842; stroke:none;" d="M265 134L266 135L265 134z"/>
<path style="fill:#a99059; stroke:none;" d="M223.667 135.333L224.333 135.667L223.667 135.333z"/>
<path style="fill:#4b4842; stroke:none;" d="M225.667 135.333L226.333 135.667L225.667 135.333M238 135L239 136L238 135z"/>
<path style="fill:#a99059; stroke:none;" d="M239 135L240 136L239 135z"/>
<path style="fill:#e4cd8b; stroke:none;" d="M242 135L243 136L242 135M250 135L251 136L250 135z"/>
<path style="fill:#4b4842; stroke:none;" d="M266 135L267 136L266 135z"/>
<path style="fill:#a99059; stroke:none;" d="M204 136L205 137L204 136z"/>
<path style="fill:#e4cd8b; stroke:none;" d="M207.333 136.667L207.667 137.333L207.333 136.667z"/>
<path style="fill:#a99059; stroke:none;" d="M227.667 136.333L228.333 136.667L227.667 136.333z"/>
<path style="fill:#4b4842; stroke:none;" d="M229 136L229 137L237 137L229 136z"/>
<path style="fill:#a99059; stroke:none;" d="M237 136L238 137L237 136z"/>
<path style="fill:#4b4842; stroke:none;" d="M268 136L269 137L268 136z"/>
<path style="fill:#a99059; stroke:none;" d="M205 137L206 138L205 137z"/>
<path style="fill:#e4cd8b; stroke:none;" d="M209 137L208 139L209 143L210 143L211 140L211 143L215 147C214.699 142.732 212.684 139.251 209 137M237 137L239 139L239 137L237 137M252 137L253 138L252 137z"/>
<path style="fill:#4b4842; stroke:none;" d="M270 137L271 138L270 137M285 137L285 138L288 138L285 137z"/>
<path style="fill:#a99059; stroke:none;" d="M288 137L288 138L293 138L288 137z"/>
<path style="fill:#4b4842; stroke:none;" d="M293 137L294 138L293 137M205 138L206 139L205 138z"/>
<path style="fill:#e4cd8b; stroke:none;" d="M235 138L236 141L235 138M247 138L246 142L247 138z"/>
<path style="fill:#4b4842; stroke:none;" d="M273 138L273 139L282 139L273 138z"/>
<path style="fill:#a99059; stroke:none;" d="M282 138L282 139L285 139L282 138M294 138L295 143L296 143L294 138M206 139L207 140L206 139z"/>
<path style="fill:#4b4842; stroke:none;" d="M295 139L296 140L295 139z"/>
<path style="fill:#e4cd8b; stroke:none;" d="M238 140L242 141L238 140z"/>
<path style="fill:#a99059; stroke:none;" d="M207 141L208 142L207 141z"/>
<path style="fill:#4b4842; stroke:none;" d="M296 141L296 144L297 144L296 141z"/>
<path style="fill:#a99059; stroke:none;" d="M208 142L209 143L208 142z"/>
<path style="fill:#e4cd8b; stroke:none;" d="M236 142L237 143L236 142M253 142L252 144L253 142M256 142L259 146L256 142z"/>
<path style="fill:#4b4842; stroke:none;" d="M208 143L209 144L208 143z"/>
<path style="fill:#e4cd8b; stroke:none;" d="M210.333 143.667L210.667 144.333L210.333 143.667M239 143L238 146L237 144L236 144L238 153L239 153L239 143z"/>
<path style="fill:#a99059; stroke:none;" d="M209 144L210 145L209 144M295 144L289 154L290 154L295 144M210 145L211 146L210 145z"/>
<path style="fill:#e4cd8b; stroke:none;" d="M212 145L211 147L213 147L212 145z"/>
<path style="fill:#4b4842; stroke:none;" d="M295 145L296 146L295 145M210 146L211 147L210 146z"/>
<path style="fill:#a99059; stroke:none;" d="M211 147L212 148L211 147z"/>
<path style="fill:#e4cd8b; stroke:none;" d="M213 147L214 148L213 147M215 147L215 152L219 151L217 147L215 147M256 147L256 150L257 150L256 147M258 147L258 150L259 150L258 147z"/>
<path style="fill:#4b4842; stroke:none;" d="M294 147L295 148L294 147M211 148L212 149L211 148M293 148L294 149L293 148z"/>
<path style="fill:#a99059; stroke:none;" d="M212 149L213 150L212 149z"/>
<path style="fill:#e2bf6b; stroke:none;" d="M215 149L216 150L215 149z"/>
<path style="fill:#4b4842; stroke:none;" d="M212 150L213 151L212 150M213 151L214 152L213 151M291 151L292 152L291 151z"/>
<path style="fill:#a99059; stroke:none;" d="M214 152L215 153L214 152z"/>
<path style="fill:#e4cd8b; stroke:none;" d="M242.333 152.667L242.667 153.333L242.333 152.667M255 152L256 153L255 152M258.333 152.667L258.667 153.333L258.333 152.667z"/>
<path style="fill:#4b4842; stroke:none;" d="M290 152L291 153L290 152M214 153L215 154L214 153z"/>
<path style="fill:#e4cd8b; stroke:none;" d="M216 153L218 155L218 153L216 153M219 153L221 157L219 156L230 168L229 172L230 172L231 170L234 176L235 176C232.796 170.894 228.761 162.154 223 161L222 160L223 158L221 159L223 156L219 153z"/>
<path style="fill:#4b4842; stroke:none;" d="M215 154L216 155L215 154z"/>
<path style="fill:#a99059; stroke:none;" d="M286 156L287 157L289 154L286 156M216 155L217 156L216 155z"/>
<path style="fill:#e4cd8b; stroke:none;" d="M239 155L243 165L239 155M257 155L257 166L258 166L257 155z"/>
<path style="fill:#4b4842; stroke:none;" d="M288 155L289 156L288 155M216 156L217 157L216 156z"/>
<path style="fill:#a99059; stroke:none;" d="M217 157L219 159L217 157z"/>
<path style="fill:#e4cd8b; stroke:none;" d="M218 157L219 158L218 157z"/>
<path style="fill:#a99059; stroke:none;" d="M286 157L282 163L286 157z"/>
<path style="fill:#4b4842; stroke:none;" d="M217 158L218 159L217 158z"/>
<path style="fill:#a99059; stroke:none;" d="M282 158L283 159L282 158z"/>
<path style="fill:#4b4842; stroke:none;" d="M286 158L287 159L286 158M218 159L219 160L218 159z"/>
<path style="fill:#e4cd8b; stroke:none;" d="M219 159L220 160L219 159z"/>
<path style="fill:#4b4842; stroke:none;" d="M285 159L286 160L285 159z"/>
<path style="fill:#a99059; stroke:none;" d="M219 160L220 161L219 160z"/>
<path style="fill:#e4cd8b; stroke:none;" d="M244.333 160.667L244.667 161.333L244.333 160.667M254 160L254 162L256 160L254 160z"/>
<path style="fill:#4b4842; stroke:none;" d="M219 161L220 162L219 161z"/>
<path style="fill:#a99059; stroke:none;" d="M220 162L221 163L220 162z"/>
<path style="fill:#e4cd8b; stroke:none;" d="M221 162L222 163L221 162z"/>
<path style="fill:#4b4842; stroke:none;" d="M283 162L284 163L283 162z"/>
<path style="fill:#e4cd8b; stroke:none;" d="M246 163L246 166L247 166L246 163z"/>
<path style="fill:#4b4842; stroke:none;" d="M282 163L283 164L282 163z"/>
<path style="fill:#a99059; stroke:none;" d="M221 164L223 166L221 164z"/>
<path style="fill:#e4cd8b; stroke:none;" d="M222 164L224 166L224 164L222 164M255.333 164.667L255.667 165.333L255.333 164.667z"/>
<path style="fill:#a99059; stroke:none;" d="M280 164L276 172L277 172L282 164L280 164z"/>
<path style="fill:#4b4842; stroke:none;" d="M222 166L223 167L222 166z"/>
<path style="fill:#e4cd8b; stroke:none;" d="M225 166L228 171L225 166M244 166L244 169L245 169L244 166z"/>
<path style="fill:#4b4842; stroke:none;" d="M280 166L281 167L280 166z"/>
<path style="fill:#a99059; stroke:none;" d="M223 167L224 168L223 167z"/>
<path style="fill:#e4cd8b; stroke:none;" d="M257 167L254 169L254 170L258 172L257 167z"/>
<path style="fill:#4b4842; stroke:none;" d="M279 167L280 168L279 167z"/>
<path style="fill:#a99059; stroke:none;" d="M224 168L225 169L224 168z"/>
<path style="fill:#e4cd8b; stroke:none;" d="M242 168L243 169L242 168M247 168L248 169L247 168z"/>
<path style="fill:#4b4842; stroke:none;" d="M224 169L225 170L224 169M278 169L279 170L278 169z"/>
<path style="fill:#a99059; stroke:none;" d="M225 170L226 171L225 170z"/>
<path style="fill:#4b4842; stroke:none;" d="M277 170L278 171L277 170M225 171L226 172L225 171z"/>
<path style="fill:#e4cd8b; stroke:none;" d="M243 171L244 172L243 171M251.667 171.333L252.333 171.667L251.667 171.333z"/>
<path style="fill:#a99059; stroke:none;" d="M226 172L227 173L226 172z"/>
<path style="fill:#e4cd8b; stroke:none;" d="M228 172L231 174L228 172z"/>
<path style="fill:#a99059; stroke:none;" d="M275 172L276 173L275 172M227 173L228 174L227 173z"/>
<path style="fill:#e4cd8b; stroke:none;" d="M248.667 173.333L249.333 173.667L248.667 173.333M243 176L243 177C247.258 177 256.982 177.75 258 173L243 176z"/>
<path style="fill:#4b4842; stroke:none;" d="M275 173L276 174L275 173M227 174L228 175L227 174z"/>
<path style="fill:#a99059; stroke:none;" d="M269 174L269 175L273 175L269 174z"/>
<path style="fill:#4b4842; stroke:none;" d="M229 178L223 191C230.718 186.754 239.417 187.996 248 188C251.043 188.001 256.052 187.225 257.933 190.318C260.95 195.277 255.349 205.058 254 210C263.887 212.664 265.973 195.866 264 189C271.341 194.618 276.728 203.767 280.741 212C283.41 217.477 284.078 223.462 291 224C290.702 211.331 281.463 197.869 273 189L277 189L277 183L269 182L269 181L276 180L276 175L274 174C262.454 176.75 240.269 181.648 229 178z"/>
<path style="fill:#a99059; stroke:none;" d="M274 174L275 175L274 174M228 175L229 176L228 175z"/>
<path style="fill:#e4cd8b; stroke:none;" d="M232 175L230 176C232.08 179.117 234.507 178.402 238 178L238 177L232 175z"/>
<path style="fill:#a99059; stroke:none;" d="M259 175L259 176L264 176L259 175z"/>
<path style="fill:#010101; stroke:none;" d="M274 175L275 176L274 175z"/>
<path style="fill:#4b4842; stroke:none;" d="M228 176L229 177L228 176z"/>
<path style="fill:#e2bf6b; stroke:none;" d="M250 176L251 177L250 176z"/>
<path style="fill:#a99059; stroke:none;" d="M251 176L251 177L256 177L251 176M229 177L230 178L229 177M242 177L242 178L246 178L242 177z"/>
<path style="fill:#4b4842; stroke:none;" d="M276 177L277 178L276 177z"/>
<path style="fill:#e2bf6b; stroke:none;" d="M230 178L231 179L230 178z"/>
<path style="fill:#a99059; stroke:none;" d="M234 178L234 179L237 179L234 178z"/>
<path style="fill:#010101; stroke:none;" d="M232 179L233 180L232 179M272 179L273 180L272 179M231 180L230 182L231 180M275 183L276 184L275 183z"/>
<path style="fill:#e4cd8b; stroke:none;" d="M226 188L227 191L221 194L221 200L214 201L210 208L214 203L215 203L214 207L215 207L216 203L217 203L218 206L219 206L217 201L221 201L229 191L227 197L237 190L237 189L226 188z"/>
<path style="fill:#e2bf6b; stroke:none;" d="M227 188L228 189L227 188z"/>
<path style="fill:#a99059; stroke:none;" d="M228 188L228 189L258 189L258 195C262.376 184.191 234.31 188 228 188M273 189L277 193L276 189L273 189z"/>
<path style="fill:#e2bf6b; stroke:none;" d="M196 223L198 222L198 223C193.049 226.509 189.034 231.887 191 238L188 236L188 241L187 241L188 238L187 238L185 242L187 241L187 242L184 243L179 255L180 255L183 252L177 259L179 263L176 261L178 265L175 265L176 269L173 270L174 277L175 277L175 272L176 272L176 279L171 277L170 286L169 292L167 291L167 292L165 312L167 311L166 325L167 325C167.433 319.519 170.391 308.104 166 304L166 303L168 296L169 296C169 297.965 170 300.682 170 302C170 304.123 170.281 328.07 166 327L170 339L171 337L172 337L174 341L174 338L175 338C174.68 341.402 174.333 346.624 179 345L181 350L184 348C183.177 354.258 197.472 358 203 358C206.357 358 207.221 355.359 210 355L206 358L206 359L235 359L235 360L226 360L226 361C248.868 360.997 272.193 362.209 295.004 360.167C308.519 358.956 321.727 357.375 332.255 347.826C345.082 336.192 342.512 314.203 340.272 299C333.925 255.938 313.374 212.951 276 189L275 190C279.557 197.999 285.296 205.024 288.981 213.572C293.448 223.935 289.493 224.375 282 219L279 212C279.011 204.479 271.5 195.749 266 191L267 207L266 207L266 201L265 201L261 212L263 214L257 213L253 214L253 213L255 212L251 210L248 213L251 208L249 206L252 207L251 202L252 202L254 207L255 207L254 204L256 205C254.868 201.603 254.977 198.244 258 199L258 198L255 198C258.124 189.172 251.186 188.821 245 193L246 190C237.958 187.628 232.764 191.708 227 197L229 191L221 201L217 201L219 206L218 206L217 203L216 203L215 207L214 207L215 203L214 203L210 208L214 201L221 200L221 194L227 189C214.7 194.74 203.04 211.695 196 223z"/>
<path style="fill:#e4cd8b; stroke:none;" d="M245 189L245 193C251.361 189.946 257.093 189.013 255 198L258 198L258 189L245 189z"/>
<path style="fill:#a99059; stroke:none;" d="M264 189L264 190L267 191L264 189z"/>
<path style="fill:#e4cd8b; stroke:none;" d="M274.667 189.333L275.333 189.667L274.667 189.333z"/>
<path style="fill:#a99059; stroke:none;" d="M277 189L282 193L282 192L277 189z"/>
<path style="fill:#4b4842; stroke:none;" d="M278 189L279 190L278 189z"/>
<path style="fill:#e2bf6b; stroke:none;" d="M229 190L229 191L233 192L233 191L229 190z"/>
<path style="fill:#e4cd8b; stroke:none;" d="M265.333 190.667L265.667 191.333L265.333 190.667z"/>
<path style="fill:#4b4842; stroke:none;" d="M279 190L280 191L279 190z"/>
<path style="fill:#a99059; stroke:none;" d="M222 191L223 192L222 191z"/>
<path style="fill:#e4cd8b; stroke:none;" d="M248 191L249 192L248 191M250 191L251 192L250 191M252 191L252 192L256 194L252 191z"/>
<path style="fill:#a99059; stroke:none;" d="M267 191L268 192L267 191z"/>
<path style="fill:#4b4842; stroke:none;" d="M281 191L282 192L281 191z"/>
<path style="fill:#a99059; stroke:none;" d="M221 192L222 193L221 192z"/>
<path style="fill:#4b4842; stroke:none;" d="M282 192L283 193L282 192z"/>
<path style="fill:#a99059; stroke:none;" d="M220 193L221 194L220 193z"/>
<path style="fill:#e4cd8b; stroke:none;" d="M244.333 193.667L244.667 194.333L244.333 193.667M265.333 193.667L265.667 194.333L265.333 193.667z"/>
<path style="fill:#a99059; stroke:none;" d="M283 193L284 194L283 193M219 194L220 195L219 194z"/>
<path style="fill:#e2bf6b; stroke:none;" d="M223 194L222 196L223 194z"/>
<path style="fill:#e4cd8b; stroke:none;" d="M247 194L245 197L247 194z"/>
<path style="fill:#a99059; stroke:none;" d="M269 194L271 196L269 194M284 194L295 203L284 194z"/>
<path style="fill:#4b4842; stroke:none;" d="M285 194L286 195L285 194z"/>
<path style="fill:#a99059; stroke:none;" d="M218 195L219 196L218 195z"/>
<path style="fill:#e4cd8b; stroke:none;" d="M231 195L231 197L233 195L231 195M242 195L242 197L244 197L242 195M269 195L270 196L269 195z"/>
<path style="fill:#a99059; stroke:none;" d="M278 195L279 196L278 195z"/>
<path style="fill:#4b4842; stroke:none;" d="M286 195L287 196L286 195z"/>
<path style="fill:#a99059; stroke:none;" d="M217 196L216 198L217 196z"/>
<path style="fill:#e4cd8b; stroke:none;" d="M219.333 196.667L219.667 197.333L219.333 196.667z"/>
<path style="fill:#a99059; stroke:none;" d="M264 196L264 199L265 199L264 196z"/>
<path style="fill:#e4cd8b; stroke:none;" d="M265 196C263.503 207.065 257.225 216.19 252 202L251 202L252 207C249.587 206.431 248.411 208.089 251 208L248 213L251 210L255 212L253 213L253 214L257 213L257 215L263 214L261 212L265 201L266 201L266 207L267 207L265 196z"/>
<path style="fill:#a99059; stroke:none;" d="M271 196L272 197L271 196M279 196L280 197L279 196z"/>
<path style="fill:#4b4842; stroke:none;" d="M288 196L289 197L288 196z"/>
<path style="fill:#e4cd8b; stroke:none;" d="M217 197L218 198L217 197z"/>
<path style="fill:#4b4842; stroke:none;" d="M289 197L290 198L289 197z"/>
<path style="fill:#a99059; stroke:none;" d="M215 198L216 199L215 198z"/>
<path style="fill:#e4cd8b; stroke:none;" d="M238 200L238 201L243 203L240 202L242 198L238 200M247 198L248 199L247 198M256 198L255 204L256 204L256 198z"/>
<path style="fill:#a99059; stroke:none;" d="M272 198L273 199L272 198M280 198L281 199L280 198z"/>
<path style="fill:#4b4842; stroke:none;" d="M290 198L291 199L290 198z"/>
<path style="fill:#a99059; stroke:none;" d="M214 199L215 200L214 199z"/>
<path style="fill:#e4cd8b; stroke:none;" d="M229.333 199.667L229.667 200.333L229.333 199.667M245 199L246 200L245 199z"/>
<path style="fill:#a99059; stroke:none;" d="M257 199L258 200L257 199z"/>
<path style="fill:#e2bf6b; stroke:none;" d="M264 199L265 200L264 199z"/>
<path style="fill:#a99059; stroke:none;" d="M273 199L274 200L273 199M281 199L282 200L281 199z"/>
<path style="fill:#4b4842; stroke:none;" d="M291 199L292 200L291 199z"/>
<path style="fill:#a99059; stroke:none;" d="M213 200L214 201L213 200z"/>
<path style="fill:#e4cd8b; stroke:none;" d="M250 200L251 201L250 200M253 200L253 204L254 204L253 200z"/>
<path style="fill:#4b4842; stroke:none;" d="M212 201L213 202L212 201z"/>
<path style="fill:#a99059; stroke:none;" d="M263.333 201.667L263.667 202.333L263.333 201.667M282 201L283 202L282 201z"/>
<path style="fill:#4b4842; stroke:none;" d="M294 201L295 202L294 201M211 202L212 203L211 202z"/>
<path style="fill:#e4cd8b; stroke:none;" d="M225 202L225 205L226 205L225 202M228 202L227 207L228 207L228 202M237 202L236 208L240 209L237 202M249 202L248 206L249 206L249 202z"/>
<path style="fill:#a99059; stroke:none;" d="M256 202L257 203L256 202M275 202L276 203L275 202M283.333 202.667L283.667 203.333L283.333 202.667z"/>
<path style="fill:#4b4842; stroke:none;" d="M210 203L207 207L210 203z"/>
<path style="fill:#e2bf6b; stroke:none;" d="M263 203L264 204L263 203z"/>
<path style="fill:#a99059; stroke:none;" d="M295 203L295 205L297 205L295 203z"/>
<path style="fill:#4b4842; stroke:none;" d="M296 203L297 204L296 203z"/>
<path style="fill:#a99059; stroke:none;" d="M210 204L211 205L210 204z"/>
<path style="fill:#e4cd8b; stroke:none;" d="M235 204L233 208L235 204M254.333 204.667L254.667 205.333L254.333 204.667M268 204C268.393 209.852 272.778 217.996 277 222L268 204z"/>
<path style="fill:#a99059; stroke:none;" d="M276 204L277 205L276 204M284 204L285 205L284 204M209 205L210 206L209 205M230 205L231 206L230 205M255 205L256 206L255 205M262 205L263 206L262 205M277 205L278 206L277 205M297 205L299 207L297 205z"/>
<path style="fill:#4b4842; stroke:none;" d="M298 205L299 206L298 205z"/>
<path style="fill:#a99059; stroke:none;" d="M208 206L209 207L208 206z"/>
<path style="fill:#e4cd8b; stroke:none;" d="M223 206L223 208L225 208L225 206L223 206z"/>
<path style="fill:#a99059; stroke:none;" d="M285 206L286 207L285 206M207 207L208 208L207 207z"/>
<path style="fill:#e2bf6b; stroke:none;" d="M239 207L240 208L239 207z"/>
<path style="fill:#a99059; stroke:none;" d="M254 207L255 208L254 207M261 207L262 208L261 207z"/>
<path style="fill:#e4cd8b; stroke:none;" d="M264 207L263 211L264 211L264 207z"/>
<path style="fill:#a99059; stroke:none;" d="M278 207L279 208L278 207M299 207L300 208L299 207M206 208L207 209L206 208z"/>
<path style="fill:#e4cd8b; stroke:none;" d="M208 208L208 214L204 213L204 214L210 212L207 211L208 208M226 208L227 209L226 208z"/>
<path style="fill:#a99059; stroke:none;" d="M286 208L287 209L286 208M300 208L301 209L300 208z"/>
<path style="fill:#4b4842; stroke:none;" d="M205 209L204 211L205 209z"/>
<path style="fill:#e4cd8b; stroke:none;" d="M232 209L230 213L232 209M248 209L249 210L248 209z"/>
<path style="fill:#a99059; stroke:none;" d="M260 209L261 210L260 209M279 209L280 210L279 209M301 209L302 210L301 209M205 210L206 211L205 210z"/>
<path style="fill:#e4cd8b; stroke:none;" d="M225 210L224 213L225 210z"/>
<path style="fill:#e2bf6b; stroke:none;" d="M254 210L255 211L254 210z"/>
<path style="fill:#a99059; stroke:none;" d="M287 210L288 211L287 210z"/>
<path style="fill:#4b4842; stroke:none;" d="M302 210L307 215L302 210z"/>
<path style="fill:#a99059; stroke:none;" d="M204 211L205 212L204 211z"/>
<path style="fill:#e2bf6b; stroke:none;" d="M256 211L257 212L256 211z"/>
<path style="fill:#a99059; stroke:none;" d="M257.667 211.333L258.333 211.667L257.667 211.333z"/>
<path style="fill:#e4cd8b; stroke:none;" d="M279 211L280 212L279 211z"/>
<path style="fill:#a99059; stroke:none;" d="M280 211L281 212L280 211M302 211L303 212L302 211M203 212L204 213L203 212z"/>
<path style="fill:#e4cd8b; stroke:none;" d="M240 212L242 216L240 212M248 216L253 216L253 215L253 214L251 215L253 213L248 216z"/>
<path style="fill:#a99059; stroke:none;" d="M288.333 212.667L288.667 213.333L288.333 212.667M303 212L304 213L303 212z"/>
<path style="fill:#4b4842; stroke:none;" d="M202 213L203 214L202 213z"/>
<path style="fill:#e4cd8b; stroke:none;" d="M228 213L227 215L229 215L228 213M267 213L267 216L268 216L267 213M269 213L270 214L269 213z"/>
<path style="fill:#a99059; stroke:none;" d="M281 213L282 214L281 213z"/>
<path style="fill:#e4cd8b; stroke:none;" d="M289 213L290 214L289 213z"/>
<path style="fill:#a99059; stroke:none;" d="M304 213L307 216L304 213z"/>
<path style="fill:#4b4842; stroke:none;" d="M201 214L200 216L201 214z"/>
<path style="fill:#e4cd8b; stroke:none;" d="M260.667 214.333L261.333 214.667L260.667 214.333M263 214L262 217L266 217L266 216L263 214z"/>
<path style="fill:#a99059; stroke:none;" d="M201 215L202 216L201 215z"/>
<path style="fill:#e4cd8b; stroke:none;" d="M203 215C201.837 217.654 201.698 218.213 204 220L203 215M233 215L234 216L233 215z"/>
<path style="fill:#a99059; stroke:none;" d="M282.333 215.667L282.667 216.333L282.333 215.667M289 215L290 216L289 215M200 216L201 217L200 216z"/>
<path style="fill:#e4cd8b; stroke:none;" d="M205 216L206 217L205 216M227 216L228 217L227 216z"/>
<path style="fill:#4b4842; stroke:none;" d="M307 216L309 218L307 216M199 217L200 218L199 217z"/>
<path style="fill:#e4cd8b; stroke:none;" d="M207.333 217.667L207.667 218.333L207.333 217.667M259.667 217.333L260.333 217.667L259.667 217.333z"/>
<path style="fill:#a99059; stroke:none;" d="M290 217L291 218L290 217M307 217L319 234L307 217z"/>
<path style="fill:#4b4842; stroke:none;" d="M198 218L197 220L198 218z"/>
<path style="fill:#e4cd8b; stroke:none;" d="M256 218L256 219L266 219L266 218L256 218M272 218L273 219L272 218M282 218L283 219L282 218z"/>
<path style="fill:#a99059; stroke:none;" d="M283 218L284 219L283 218z"/>
<path style="fill:#e4cd8b; stroke:none;" d="M291 218L292 219L291 218z"/>
<path style="fill:#a99059; stroke:none;" d="M198 219L199 220L198 219z"/>
<path style="fill:#e4cd8b; stroke:none;" d="M223 219L225 222L223 219z"/>
<path style="fill:#a99059; stroke:none;" d="M197 220L198 221L197 220z"/>
<path style="fill:#e4cd8b; stroke:none;" d="M199 220L199 222L201 220L199 220M249.667 220.333L250.333 220.667L249.667 220.333M272 220L273 223L274 223L272 220z"/>
<path style="fill:#a99059; stroke:none;" d="M284.333 220.667L284.667 221.333L284.333 220.667M291 220L291 224L292 224L291 220z"/>
<path style="fill:#4b4842; stroke:none;" d="M310 220L311 221L310 220M196 221L197 222L196 221z"/>
<path style="fill:#e4cd8b; stroke:none;" d="M206 221L205 223L206 221M253 221L253 223L255 223L255 221L253 221M266 221C263.172 225.734 254.822 225.481 251 222L248 226L249 226L251 224L248 227L249 235L239 236L239 237L241 238L235 240L229 250L231 257L229 255L228 255L229 260L227 258L226 258L227 268L229 264L228 264L227 266L231 260L229 271L231 277L237 273L237 274L233 278L238 278L237 274L243 278L241 282L247 279L247 280L245 282L250 280L248 283L256 283L256 285L248 284L248 285L248 288L253 286L253 287L251 287L251 288L255 287L256 288L255 291L257 290L257 291L251 294L245 290L241 289L236 290L238 289L238 288L235 287L236 289L233 288L227 303L229 311L232 309L233 315L227 313C229.291 316.319 231.307 316.242 235 315L234 313L234 312L245 312L245 313L242 315L249 313L248 325L249 325L250 323L254 324L254 326L257 325L256 327L260 327L266 325L264 322L269 323L269 322L266 322L266 321L272 318L272 317L265 321L265 315L270 314L270 313L266 313L266 312L271 311L279 311L278 304L282 305L282 304L280 304L280 303L284 303L284 302L280 301C281.707 293.533 286.588 280.588 279 275L279 274L282 271L276 269L276 268L280 267L280 266L276 265L273 267L273 266L275 266L275 265L270 267L272 262L276 263L274 260L273 260L263 263L264 260L254 253L258 255L257 253L258 253L265 253L265 254L263 254L263 255L271 255L269 256L269 257L279 253C277.498 250.998 277.021 249.255 280 250L278 247L280 240L281 240L282 245L283 245L279 239L281 236L279 238L271 234L272 236L271 236L265 235L266 227L270 226L267 225L267 224L269 223L266 221z"/>
<path style="fill:#4b4842; stroke:none;" d="M311 221L312 222L311 221M195 222L196 223L195 222z"/>
<path style="fill:#e4cd8b; stroke:none;" d="M197 222L196 224L198 224L197 222M271 222L271 225L272 225L271 222z"/>
<path style="fill:#4b4842; stroke:none;" d="M312 222L313 223L312 222z"/>
<path style="fill:#a99059; stroke:none;" d="M195 223L196 224L195 223z"/>
<path style="fill:#e4cd8b; stroke:none;" d="M199.667 223.333L200.333 223.667L199.667 223.333M245 223L244 226L247 226L245 223z"/>
<path style="fill:#a99059; stroke:none;" d="M285 223L286 224L285 223z"/>
<path style="fill:#4b4842; stroke:none;" d="M194 224L195 225L194 224z"/>
<path style="fill:#e4cd8b; stroke:none;" d="M274 224L275 231L276 231L279 228L278 224L277 224L276 227L274 224z"/>
<path style="fill:#a99059; stroke:none;" d="M286 224L286 225L290 225L286 224z"/>
<path style="fill:#4b4842; stroke:none;" d="M313 224L314 225L313 224z"/>
<path style="fill:#a99059; stroke:none;" d="M194 225L193 227L194 225z"/>
<path style="fill:#e2bf6b; stroke:none;" d="M264 225L264 227L266 225L264 225z"/>
<path style="fill:#4b4842; stroke:none;" d="M314 225L315 226L314 225z"/>
<path style="fill:#e4cd8b; stroke:none;" d="M194 226L195 227L194 226M196 226L193 232L194 232L196 226M199.333 226.667L199.667 227.333L199.333 226.667z"/>
<path style="fill:#a99059; stroke:none;" d="M250 228L253 227L250 228z"/>
<path style="fill:#4b4842; stroke:none;" d="M234 291C233.472 295.516 230.129 300.201 231.333 304.867C232.95 311.135 245.932 310.958 251 311C251 315.686 254.407 330.607 261.972 321.258C264.18 318.53 263 312.306 263 309C280.208 305.931 286.439 281.569 272.985 270.34C267.452 265.723 255.155 264.885 252.086 257.957C247.093 246.683 270.322 253.017 274 254C278.875 241.344 276.578 237.828 263 236L263 227C250.307 224.645 255.623 230.358 248.682 236.157C239.114 244.152 227.649 249.517 233.563 265C238.35 277.531 252.834 275.468 259.392 285.105C262.514 289.693 258.463 293.575 253.999 294.606C247.18 296.181 240.242 293.405 234 291z"/>
<path style="fill:#a99059; stroke:none;" d="M260 226L260 227L263 227L260 226z"/>
<path style="fill:#4b4842; stroke:none;" d="M192 227L193 228L192 227z"/>
<path style="fill:#e4cd8b; stroke:none;" d="M201.333 227.667L201.667 228.333L201.333 227.667M203 227L204 228L203 227M271 227L271 231L272 231L271 227z"/>
<path style="fill:#4b4842; stroke:none;" d="M315 227L316 228L315 227z"/>
<path style="fill:#a99059; stroke:none;" d="M192 228L191 230L192 228z"/>
<path style="fill:#e2bf6b; stroke:none;" d="M250 228L250 236L251 236L250 228z"/>
<path style="fill:#e4cd8b; stroke:none;" d="M267 228L267 230L269 230L269 228L267 228z"/>
<path style="fill:#4b4842; stroke:none;" d="M316 228L317 229L316 228z"/>
<path style="fill:#e4cd8b; stroke:none;" d="M192 229L193 230L192 229M197 229L198 230L197 229z"/>
<path style="fill:#4b4842; stroke:none;" d="M190 230L191 231L190 230M317 230L318 231L317 230z"/>
<path style="fill:#a99059; stroke:none;" d="M190 231L191 232L190 231z"/>
<path style="fill:#e4cd8b; stroke:none;" d="M198 231L199 232L198 231M246 231L244 233L244 234L248 232L246 231z"/>
<path style="fill:#4b4842; stroke:none;" d="M189 232L190 233L189 232z"/>
<path style="fill:#e4cd8b; stroke:none;" d="M191 232L190 235L191 232M270 232L271 233L270 232M272 232L273 233L272 232M277 232L278 233L277 232M279 232L280 233L279 232M281 232L282 237L283 237L281 232z"/>
<path style="fill:#4b4842; stroke:none;" d="M318 232L319 233L318 232z"/>
<path style="fill:#a99059; stroke:none;" d="M189 233L190 234L189 233z"/>
<path style="fill:#e4cd8b; stroke:none;" d="M193 235L193 236L199 233L193 235M239.667 233.333L240.333 233.667L239.667 233.333M268 233L269 234L268 233M274 233L276 235L276 233L274 233z"/>
<path style="fill:#4b4842; stroke:none;" d="M188 234L189 235L188 234z"/>
<path style="fill:#e4cd8b; stroke:none;" d="M277.667 234.333L278.333 234.667L277.667 234.333z"/>
<path style="fill:#4b4842; stroke:none;" d="M319 234L320 235L319 234z"/>
<path style="fill:#a99059; stroke:none;" d="M188 235L189 236L188 235z"/>
<path style="fill:#e4cd8b; stroke:none;" d="M189 235L191 238L189 235M236 235L237 236L236 235z"/>
<path style="fill:#a99059; stroke:none;" d="M319 235L320 236L319 235z"/>
<path style="fill:#4b4842; stroke:none;" d="M187 236L186 238L187 236z"/>
<path style="fill:#e4cd8b; stroke:none;" d="M198 236L199 237L198 236z"/>
<path style="fill:#e2bf6b; stroke:none;" d="M242.667 236.333L243.333 236.667L242.667 236.333M248 236L249 237L248 236z"/>
<path style="fill:#a99059; stroke:none;" d="M249 236L250 237L249 236M266 236L267 237L266 236z"/>
<path style="fill:#e2bf6b; stroke:none;" d="M267 236L268 237L267 236z"/>
<path style="fill:#4b4842; stroke:none;" d="M320 236L322 238L320 236z"/>
<path style="fill:#a99059; stroke:none;" d="M187 237L188 238L187 237z"/>
<path style="fill:#e4cd8b; stroke:none;" d="M188 237L187 241L188 241L188 237M236 237L234 238L234 239L236 237z"/>
<path style="fill:#a99059; stroke:none;" d="M245.667 237.333L246.333 237.667L245.667 237.333M270.667 237.333L271.333 237.667L270.667 237.333z"/>
<path style="fill:#e2bf6b; stroke:none;" d="M272 237L273 238L272 237z"/>
<path style="fill:#a99059; stroke:none;" d="M320 237L321 238L320 237M186 238L187 239L186 238z"/>
<path style="fill:#e4cd8b; stroke:none;" d="M191 238L191 242L192 242L191 238z"/>
<path style="fill:#a99059; stroke:none;" d="M243 238L244 239L243 238M274 238L275 239L274 238z"/>
<path style="fill:#e2bf6b; stroke:none;" d="M275 238L276 239L275 238z"/>
<path style="fill:#e4cd8b; stroke:none;" d="M283 238L284 248L287 248L283 238z"/>
<path style="fill:#a99059; stroke:none;" d="M321 238L328 256L329 256L321 238z"/>
<path style="fill:#4b4842; stroke:none;" d="M185 239L186 240L185 239z"/>
<path style="fill:#a99059; stroke:none;" d="M241 239L242 240L241 239M277 239L278 240L277 239z"/>
<path style="fill:#e2bf6b; stroke:none;" d="M278 239L279 240L278 239z"/>
<path style="fill:#4b4842; stroke:none;" d="M322 239L323 240L322 239z"/>
<path style="fill:#a99059; stroke:none;" d="M185 240L186 241L185 240z"/>
<path style="fill:#e4cd8b; stroke:none;" d="M226 240L227 241L226 240z"/>
<path style="fill:#a99059; stroke:none;" d="M240 240L241 241L240 240z"/>
<path style="fill:#4b4842; stroke:none;" d="M184 241L185 242L184 241z"/>
<path style="fill:#e4cd8b; stroke:none;" d="M186 241L185 243L187 243L186 241M189 241L190 245L187 243L186 244L191 248L189 241M224 241L224 244L225 244L224 241M229 241L231 246L232 246L233 241L229 241z"/>
<path style="fill:#e2bf6b; stroke:none;" d="M238 241L239 242L238 241z"/>
<path style="fill:#4b4842; stroke:none;" d="M323 241L324 242L323 241z"/>
<path style="fill:#a99059; stroke:none;" d="M184 242L185 243L184 242z"/>
<path style="fill:#e2bf6b; stroke:none;" d="M237 242L238 243L237 242z"/>
<path style="fill:#4b4842; stroke:none;" d="M183 243L184 244L183 243z"/>
<path style="fill:#a99059; stroke:none;" d="M277 243L278 244L277 243z"/>
<path style="fill:#4b4842; stroke:none;" d="M324.333 243.667L324.667 244.333L324.333 243.667z"/>
<path style="fill:#a99059; stroke:none;" d="M183 244L184 245L183 244z"/>
<path style="fill:#e4cd8b; stroke:none;" d="M184 244L185 245L184 244z"/>
<path style="fill:#e2bf6b; stroke:none;" d="M277 244L278 245L277 244z"/>
<path style="fill:#4b4842; stroke:none;" d="M182 245L183 246L182 245z"/>
<path style="fill:#e2bf6b; stroke:none;" d="M190.333 245.667L190.667 246.333L190.333 245.667z"/>
<path style="fill:#e4cd8b; stroke:none;" d="M227 245L228 246L227 245z"/>
<path style="fill:#a99059; stroke:none;" d="M235 245L236 246L235 245M182 246L183 247L182 246z"/>
<path style="fill:#e4cd8b; stroke:none;" d="M185 246L186 247L185 246z"/>
<path style="fill:#a99059; stroke:none;" d="M234.333 246.667L234.667 247.333L234.333 246.667z"/>
<path style="fill:#4b4842; stroke:none;" d="M325 246L326 247L325 246M181 247L182 248L181 247z"/>
<path style="fill:#e4cd8b; stroke:none;" d="M227 249L230 247L227 249z"/>
<path style="fill:#a99059; stroke:none;" d="M276 247L277 248L276 247z"/>
<path style="fill:#e4cd8b; stroke:none;" d="M281 247L282 248L281 247z"/>
<path style="fill:#a99059; stroke:none;" d="M181 248L182 249L181 248z"/>
<path style="fill:#e4cd8b; stroke:none;" d="M188.333 248.667L188.667 249.333L188.333 248.667z"/>
<path style="fill:#e2bf6b; stroke:none;" d="M233 248L234 249L233 248M276 248L277 249L276 248z"/>
<path style="fill:#4b4842; stroke:none;" d="M326 248L327 249L326 248M180.333 249.667L180.667 250.333L180.333 249.667z"/>
<path style="fill:#e4cd8b; stroke:none;" d="M182 249L184 251L182 249z"/>
<path style="fill:#a99059; stroke:none;" d="M233 249L234 250L233 249z"/>
<path style="fill:#e4cd8b; stroke:none;" d="M287 249L287 252L288 252L287 249M224 250L224 253L225 253L224 250M226 250L227 251L226 250z"/>
<path style="fill:#a99059; stroke:none;" d="M275 250L276 251L275 250z"/>
<path style="fill:#e4cd8b; stroke:none;" d="M282 250L281 252L282 250z"/>
<path style="fill:#4b4842; stroke:none;" d="M327.333 250.667L327.667 251.333L327.333 250.667z"/>
<path style="fill:#a99059; stroke:none;" d="M180 251L181 252L180 251z"/>
<path style="fill:#e4cd8b; stroke:none;" d="M187 251L187 254L188 254L187 251z"/>
<path style="fill:#a99059; stroke:none;" d="M253 251L254 252L253 251z"/>
<path style="fill:#e2bf6b; stroke:none;" d="M254 251L255 252L254 251M263 251L264 252L263 251z"/>
<path style="fill:#a99059; stroke:none;" d="M264.667 251.333L265.333 251.667L264.667 251.333z"/>
<path style="fill:#4b4842; stroke:none;" d="M179 252L180 253L179 252z"/>
<path style="fill:#e4cd8b; stroke:none;" d="M181 252L178 259L183 252L181 252M185.333 252.667L185.667 253.333L185.333 252.667z"/>
<path style="fill:#e2bf6b; stroke:none;" d="M232 252L233 253L232 252M267 252L268 253L267 252z"/>
<path style="fill:#a99059; stroke:none;" d="M268.667 252.333L269.333 252.667L268.667 252.333M274.333 252.667L274.667 253.333L274.333 252.667M179 253L180 254L179 253z"/>
<path style="fill:#e4cd8b; stroke:none;" d="M183 253L184 254L183 253z"/>
<path style="fill:#a99059; stroke:none;" d="M232.333 253.667L232.667 254.333L232.333 253.667z"/>
<path style="fill:#e2bf6b; stroke:none;" d="M251 253L252 254L251 253M270 253L271 254L270 253z"/>
<path style="fill:#a99059; stroke:none;" d="M271 253L272 254L271 253z"/>
<path style="fill:#4b4842; stroke:none;" d="M328 253L329 254L328 253M178 254L179 255L178 254z"/>
<path style="fill:#e4cd8b; stroke:none;" d="M225.333 254.667L225.667 255.333L225.333 254.667z"/>
<path style="fill:#e2bf6b; stroke:none;" d="M273 254L274 255L273 254z"/>
<path style="fill:#e4cd8b; stroke:none;" d="M281 254L280 257L283 255L281 254M288 254L292 269L293 269L288 254z"/>
<path style="fill:#a99059; stroke:none;" d="M178.333 255.667L178.667 256.333L178.333 255.667z"/>
<path style="fill:#e4cd8b; stroke:none;" d="M182 255L183 256L182 255M184 255L185 256L184 255z"/>
<path style="fill:#e2bf6b; stroke:none;" d="M252 255L253 256L252 255z"/>
<path style="fill:#e4cd8b; stroke:none;" d="M278 255L279 256L278 255z"/>
<path style="fill:#e2bf6b; stroke:none;" d="M281 255L282 256L281 255z"/>
<path style="fill:#e4cd8b; stroke:none;" d="M284 255L285 256L284 255z"/>
<path style="fill:#4b4842; stroke:none;" d="M329.333 255.667L329.667 256.333L329.333 255.667M177.333 256.667L177.667 257.333L177.333 256.667z"/>
<path style="fill:#e2bf6b; stroke:none;" d="M179 256L180 257L179 256M253 256L252 260L253 261L261 262L253 256M178 257L179 258L178 257z"/>
<path style="fill:#a99059; stroke:none;" d="M329.333 257.667L329.667 258.333L329.333 257.667M177 258L178 259L177 258M251 258L252 259L251 258z"/>
<path style="fill:#e4cd8b; stroke:none;" d="M255 258L256 259L255 258M263 258L264 259L263 258z"/>
<path style="fill:#4b4842; stroke:none;" d="M330.333 258.667L330.667 259.333L330.333 258.667M176 259L177 260L176 259z"/>
<path style="fill:#e4cd8b; stroke:none;" d="M183 259L184 260L183 259M253 259L254 260L253 259z"/>
<path style="fill:#a99059; stroke:none;" d="M176 260L177 261L176 260z"/>
<path style="fill:#e4cd8b; stroke:none;" d="M177 260L179 263L177 260M180.333 260.667L180.667 261.333L180.333 260.667z"/>
<path style="fill:#a99059; stroke:none;" d="M330 260L331 261L330 260z"/>
<path style="fill:#4b4842; stroke:none;" d="M175.333 261.667L175.667 262.333L175.333 261.667z"/>
<path style="fill:#a99059; stroke:none;" d="M232.333 261.667L232.667 262.333L232.333 261.667M254 261L255 262L254 261z"/>
<path style="fill:#e2bf6b; stroke:none;" d="M255 261L256 262L255 261z"/>
<path style="fill:#4b4842; stroke:none;" d="M331 261L332 262L331 261z"/>
<path style="fill:#e4cd8b; stroke:none;" d="M187 262L185 266L187 262z"/>
<path style="fill:#a99059; stroke:none;" d="M256 262L257 263L256 262z"/>
<path style="fill:#e2bf6b; stroke:none;" d="M257 262L258 263L257 262z"/>
<path style="fill:#e4cd8b; stroke:none;" d="M287.333 262.667L287.667 263.333L287.333 262.667z"/>
<path style="fill:#a99059; stroke:none;" d="M331 262L331 265L332 265L331 262M175.333 263.667L175.667 264.333L175.333 263.667z"/>
<path style="fill:#e4cd8b; stroke:none;" d="M176 263L176 266L178 265L178 264L176 263z"/>
<path style="fill:#e2bf6b; stroke:none;" d="M232 263L233 264L232 263z"/>
<path style="fill:#a99059; stroke:none;" d="M259 263L260 264L259 263z"/>
<path style="fill:#e2bf6b; stroke:none;" d="M268 263L268 264L272 264L268 263z"/>
<path style="fill:#4b4842; stroke:none;" d="M174.333 264.667L174.667 265.333L174.333 264.667z"/>
<path style="fill:#a99059; stroke:none;" d="M261.667 264.333L262.333 264.667L261.667 264.333z"/>
<path style="fill:#4b4842; stroke:none;" d="M332.333 264.667L332.667 265.333L332.333 264.667z"/>
<path style="fill:#a99059; stroke:none;" d="M233 265L234 266L233 265M264 265L265 266L264 265z"/>
<path style="fill:#e2bf6b; stroke:none;" d="M265 265L266 266L265 265M268 265L269 266L268 265z"/>
<path style="fill:#a99059; stroke:none;" d="M174 266L175 267L174 266z"/>
<path style="fill:#e2bf6b; stroke:none;" d="M231 266L234 273L231 266M233 266L234 267L233 266z"/>
<path style="fill:#a99059; stroke:none;" d="M266.667 266.333L267.333 266.667L266.667 266.333z"/>
<path style="fill:#e4cd8b; stroke:none;" d="M289 266L288 269L289 266z"/>
<path style="fill:#a99059; stroke:none;" d="M332 266L333 271L334 271L332 266z"/>
<path style="fill:#4b4842; stroke:none;" d="M173 267L174 268L173 267z"/>
<path style="fill:#e4cd8b; stroke:none;" d="M224 267L225 268L224 267z"/>
<path style="fill:#a99059; stroke:none;" d="M234 267L235 268L234 267z"/>
<path style="fill:#e2bf6b; stroke:none;" d="M269 267L270 268L269 267M272 267L273 268L272 267z"/>
<path style="fill:#4b4842; stroke:none;" d="M333.333 267.667L333.667 268.333L333.333 267.667z"/>
<path style="fill:#a99059; stroke:none;" d="M173.333 268.667L173.667 269.333L173.333 268.667z"/>
<path style="fill:#e4cd8b; stroke:none;" d="M174 268L174 270L176 268L174 268z"/>
<path style="fill:#e2bf6b; stroke:none;" d="M234 268L235 269L234 268z"/>
<path style="fill:#a99059; stroke:none;" d="M270 268L271 269L270 268z"/>
<path style="fill:#e4cd8b; stroke:none;" d="M177 269L178 270L177 269M179 269L180 270L179 269M191 269L192 270L191 269z"/>
<path style="fill:#a99059; stroke:none;" d="M235 269L236 270L235 269M272 269L273 270L272 269z"/>
<path style="fill:#e2bf6b; stroke:none;" d="M275 269L276 270L275 269M276 270L278 274L279 274L279 269L276 270z"/>
<path style="fill:#e4cd8b; stroke:none;" d="M290 269L289 274L290 274L290 269z"/>
<path style="fill:#4b4842; stroke:none;" d="M172.333 270.667L172.667 271.333L172.333 270.667z"/>
<path style="fill:#a99059; stroke:none;" d="M236 270L237 271L236 270M273 270L274 271L273 270z"/>
<path style="fill:#e4cd8b; stroke:none;" d="M278.333 270.667L278.667 271.333L278.333 270.667M285.333 270.667L285.667 271.333L285.333 270.667M173 271L174 272L173 271M191 271L192 272L191 271M225 271L224 273L225 271z"/>
<path style="fill:#a99059; stroke:none;" d="M237 271L238 272L237 271M274 271L275 272L274 271z"/>
<path style="fill:#4b4842; stroke:none;" d="M334 271L335 272L334 271z"/>
<path style="fill:#a99059; stroke:none;" d="M172 272L173 273L172 272z"/>
<path style="fill:#e4cd8b; stroke:none;" d="M175 272L175 277L174 277L173 274L172 274L172 279L176 279L175 272M229 272L228 274L229 272z"/>
<path style="fill:#a99059; stroke:none;" d="M238 272L240 274L238 272M275 272L276 273L275 272z"/>
<path style="fill:#e4cd8b; stroke:none;" d="M291 272L291 275L292 275L291 272z"/>
<path style="fill:#a99059; stroke:none;" d="M334 272L335 278L336 278L334 272z"/>
<path style="fill:#4b4842; stroke:none;" d="M171.333 273.667L171.667 274.333L171.333 273.667z"/>
<path style="fill:#e2bf6b; stroke:none;" d="M238 273L239 274L238 273z"/>
<path style="fill:#a99059; stroke:none;" d="M276 273L277 274L276 273z"/>
<path style="fill:#4b4842; stroke:none;" d="M335.333 273.667L335.667 274.333L335.333 273.667z"/>
<path style="fill:#a99059; stroke:none;" d="M240 274L241 275L240 274z"/>
<path style="fill:#e2bf6b; stroke:none;" d="M277 274L278 275L277 274z"/>
<path style="fill:#e4cd8b; stroke:none;" d="M286 274L288 276L286 274M294.333 274.667L294.667 275.333L294.333 274.667z"/>
<path style="fill:#a99059; stroke:none;" d="M171.333 275.667L171.667 276.333L171.333 275.667M242 275L243 276L242 275z"/>
<path style="fill:#4b4842; stroke:none;" d="M170.333 276.667L170.667 277.333L170.333 276.667z"/>
<path style="fill:#a99059; stroke:none;" d="M244 276L245 277L244 276M278 276L279 277L278 276z"/>
<path style="fill:#e4cd8b; stroke:none;" d="M283 276L283 279L284 279L283 276z"/>
<path style="fill:#a99059; stroke:none;" d="M246 277L247 278L246 277z"/>
<path style="fill:#4b4842; stroke:none;" d="M336.333 277.667L336.667 278.333L336.333 277.667z"/>
<path style="fill:#a99059; stroke:none;" d="M170 278L171 279L170 278M248.667 278.333L249.333 278.667L248.667 278.333z"/>
<path style="fill:#e2bf6b; stroke:none;" d="M279 278L280 279L279 278z"/>
<path style="fill:#e4cd8b; stroke:none;" d="M286.333 278.667L286.667 279.333L286.333 278.667M171 279L174 281L171 279M233 279L234 280L233 279M237 279L238 280L237 279z"/>
<path style="fill:#e2bf6b; stroke:none;" d="M250 279L251 280L250 279z"/>
<path style="fill:#a99059; stroke:none;" d="M251 279L252 280L251 279M279.333 279.667L279.667 280.333L279.333 279.667z"/>
<path style="fill:#e4cd8b; stroke:none;" d="M295 279L298 298L299 298L295 279z"/>
<path style="fill:#a99059; stroke:none;" d="M336 279L337 285L338 285L336 279z"/>
<path style="fill:#4b4842; stroke:none;" d="M169 280L170 281L169 280z"/>
<path style="fill:#a99059; stroke:none;" d="M253 280L254 281L253 280M169 281L170 282L169 281z"/>
<path style="fill:#e4cd8b; stroke:none;" d="M175 281L172 286L176 285L175 281z"/>
<path style="fill:#e2bf6b; stroke:none;" d="M255 281L256 282L255 281z"/>
<path style="fill:#4b4842; stroke:none;" d="M337.333 281.667L337.667 282.333L337.333 281.667z"/>
<path style="fill:#e4cd8b; stroke:none;" d="M170 282L172 284L170 282z"/>
<path style="fill:#a99059; stroke:none;" d="M257 282L258 283L257 282z"/>
<path style="fill:#e2bf6b; stroke:none;" d="M280 282L280 285L281 285L280 282z"/>
<path style="fill:#e4cd8b; stroke:none;" d="M285 282L285 289L286 289L285 282z"/>
<path style="fill:#4b4842; stroke:none;" d="M168.333 283.667L168.667 284.333L168.333 283.667z"/>
<path style="fill:#e4cd8b; stroke:none;" d="M243 283L244 284L243 283z"/>
<path style="fill:#e2bf6b; stroke:none;" d="M258 283L259 284L258 283z"/>
<path style="fill:#a99059; stroke:none;" d="M168 285L169 286L168 285z"/>
<path style="fill:#e4cd8b; stroke:none;" d="M169 285L170 286L169 285z"/>
<path style="fill:#e2bf6b; stroke:none;" d="M255 286L258 291L259 291L259 285L255 286z"/>
<path style="fill:#a99059; stroke:none;" d="M260 285L261 286L260 285M280 285L280 289L281 289L280 285z"/>
<path style="fill:#e4cd8b; stroke:none;" d="M292.333 285.667L292.667 286.333L292.333 285.667z"/>
<path style="fill:#4b4842; stroke:none;" d="M338 285L339 286L338 285z"/>
<path style="fill:#e4cd8b; stroke:none;" d="M173 287L173 288L176 288L173 287M229 288L232 286L229 288M256.667 286.333L257.333 286.667L256.667 286.333z"/>
<path style="fill:#e2bf6b; stroke:none;" d="M260 286L261 287L260 286z"/>
<path style="fill:#a99059; stroke:none;" d="M338 286L339 294L340 294L338 286z"/>
<path style="fill:#4b4842; stroke:none;" d="M167.333 287.667L167.667 288.333L167.333 287.667z"/>
<path style="fill:#e4cd8b; stroke:none;" d="M168 287L169 288L168 287M170 287L171 288L170 287z"/>
<path style="fill:#4b4842; stroke:none;" d="M339.333 288.667L339.667 289.333L339.333 288.667z"/>
<path style="fill:#a99059; stroke:none;" d="M167.333 289.667L167.667 290.333L167.333 289.667z"/>
<path style="fill:#e4cd8b; stroke:none;" d="M173 289L172 292L173 289M226 289L227 290L226 289M228 289L228 295L229 295L228 289z"/>
<path style="fill:#e2bf6b; stroke:none;" d="M233 289L234 290L233 289z"/>
<path style="fill:#e4cd8b; stroke:none;" d="M253 289L254 290L253 289z"/>
<path style="fill:#e2bf6b; stroke:none;" d="M260 289L261 290L260 289M280.333 289.667L280.667 290.333L280.333 289.667z"/>
<path style="fill:#e4cd8b; stroke:none;" d="M168.333 290.667L168.667 291.333L168.333 290.667M251 290L252 291L251 290z"/>
<path style="fill:#a99059; stroke:none;" d="M260.333 290.667L260.667 291.333L260.333 290.667z"/>
<path style="fill:#e4cd8b; stroke:none;" d="M295 290L295 296L296 296L295 290z"/>
<path style="fill:#4b4842; stroke:none;" d="M166.333 291.667L166.667 292.333L166.333 291.667z"/>
<path style="fill:#e2bf6b; stroke:none;" d="M233 291L234 292L233 291z"/>
<path style="fill:#a99059; stroke:none;" d="M235 291L236 292L235 291z"/>
<path style="fill:#e2bf6b; stroke:none;" d="M242 291L243 292L242 291z"/>
<path style="fill:#e4cd8b; stroke:none;" d="M247 291L248 292L247 291M285.333 291.667L285.667 292.333L285.333 291.667M225 292L227 294L227 292L225 292z"/>
<path style="fill:#a99059; stroke:none;" d="M233.333 292.667L233.667 293.333L233.333 292.667z"/>
<path style="fill:#010101; stroke:none;" d="M234 292L235 293L234 292z"/>
<path style="fill:#a99059; stroke:none;" d="M237.667 292.333L238.333 292.667L237.667 292.333M259 292L260 293L259 292M166 293L166 297L167 297L166 293z"/>
<path style="fill:#e4cd8b; stroke:none;" d="M167.333 293.667L167.667 294.333L167.333 293.667M170 293L171 294L170 293z"/>
<path style="fill:#a99059; stroke:none;" d="M240.667 293.333L241.333 293.667L240.667 293.333z"/>
<path style="fill:#e2bf6b; stroke:none;" d="M257 293L258 294L257 293z"/>
<path style="fill:#a99059; stroke:none;" d="M279.333 293.667L279.667 294.333L279.333 293.667z"/>
<path style="fill:#4b4842; stroke:none;" d="M340 293L340 296L341 296L340 293z"/>
<path style="fill:#e4cd8b; stroke:none;" d="M173 294L171 298L173 294M224 294L225 298L226 298L224 294z"/>
<path style="fill:#a99059; stroke:none;" d="M244.667 294.333L245.333 294.667L244.667 294.333z"/>
<path style="fill:#e2bf6b; stroke:none;" d="M246 294L247 295L246 294M254 294L255 295L254 294z"/>
<path style="fill:#a99059; stroke:none;" d="M255 294L256 295L255 294M232.333 295.667L232.667 296.333L232.333 295.667z"/>
<path style="fill:#e2bf6b; stroke:none;" d="M279 295L280 296L279 295z"/>
<path style="fill:#e4cd8b; stroke:none;" d="M168 296L166 303L166 304L167 328L168 328C168.515 317.949 172.582 305.755 168 296M228 296L229 297L228 296z"/>
<path style="fill:#a99059; stroke:none;" d="M278.333 296.667L278.667 297.333L278.333 296.667M340 296L340 301L341 301L340 296z"/>
<path style="fill:#4b4842; stroke:none;" d="M165 297L165 300L166 300L165 297z"/>
<path style="fill:#e2bf6b; stroke:none;" d="M231 298L232 299L231 298z"/>
<path style="fill:#e4cd8b; stroke:none;" d="M294 298L295 302L296 302L294 298M166 299L166 302L167 302L166 299z"/>
<path style="fill:#a99059; stroke:none;" d="M231 299L232 300L231 299z"/>
<path style="fill:#e2bf6b; stroke:none;" d="M277 299L272 305L272 306L274 309L269 311L278 311L275 306L278 306L276 305L276 304L280 303L277 299z"/>
<path style="fill:#e4cd8b; stroke:none;" d="M283 299L284 300L283 299M297.333 299.667L297.667 300.333L297.333 299.667M299.333 299.667L299.667 300.333L299.333 299.667z"/>
<path style="fill:#4b4842; stroke:none;" d="M341 299L341 302L342 302L341 299z"/>
<path style="fill:#a99059; stroke:none;" d="M165.333 300.667L165.667 301.333L165.333 300.667M276 300L277 301L276 300z"/>
<path style="fill:#e4cd8b; stroke:none;" d="M277 300L275 304L277 300M224 301L225 304L226 304L224 301M287.333 301.667L287.667 302.333L287.333 301.667z"/>
<path style="fill:#e2bf6b; stroke:none;" d="M230 302L231 303L230 302z"/>
<path style="fill:#a99059; stroke:none;" d="M341 302L341 307L342 307L341 302z"/>
<path style="fill:#4b4842; stroke:none;" d="M164 303L164 307L165 307L164 303z"/>
<path style="fill:#a99059; stroke:none;" d="M230 303L230 307L231 307L230 303z"/>
<path style="fill:#e4cd8b; stroke:none;" d="M298 303L299 304L298 303M274 304L273 306L275 306L274 304M224 305L225 306L224 305M297 305L296 310L297 310L299 308L297 305M300 305L300 308L301 308L300 305M165 306L165 309L166 309L165 306z"/>
<path style="fill:#a99059; stroke:none;" d="M270 306L271 307L270 306z"/>
<path style="fill:#4b4842; stroke:none;" d="M342 306L342 309L343 309L342 306z"/>
<path style="fill:#a99059; stroke:none;" d="M164 307L164 320L165 320L164 307z"/>
<path style="fill:#e4cd8b; stroke:none;" d="M226 307L223 309L224 312L227 311L226 307z"/>
<path style="fill:#a99059; stroke:none;" d="M231 307L232 308L231 307M268 307L269 308L268 307z"/>
<path style="fill:#e2bf6b; stroke:none;" d="M269 307L270 308L269 307M229 308L230 309L229 308M233 308L234 309L233 308z"/>
<path style="fill:#a99059; stroke:none;" d="M234 308L235 309L234 308M266 308L267 309L266 308z"/>
<path style="fill:#e2bf6b; stroke:none;" d="M267 308L268 309L267 308z"/>
<path style="fill:#a99059; stroke:none;" d="M341 308L342 326L343 326L341 308z"/>
<path style="fill:#e2bf6b; stroke:none;" d="M236 309L237 310L236 309z"/>
<path style="fill:#a99059; stroke:none;" d="M237 309L238 310L237 309M263.667 309.333L264.333 309.667L263.667 309.333z"/>
<path style="fill:#e4cd8b; stroke:none;" d="M271 309L272 310L271 309M274 309L275 310L274 309M298 309L298 312L299 312L298 309z"/>
<path style="fill:#e2bf6b; stroke:none;" d="M232 312L235 311L232 312M240 310L241 311L240 310z"/>
<path style="fill:#a99059; stroke:none;" d="M241 310L241 311L244 311L241 310z"/>
<path style="fill:#e2bf6b; stroke:none;" d="M266 310L265 312L266 310z"/>
<path style="fill:#e4cd8b; stroke:none;" d="M301.333 310.667L301.667 311.333L301.333 310.667M166 311L165 315L166 315L166 311z"/>
<path style="fill:#e2bf6b; stroke:none;" d="M238 311L240 313L238 311M245.667 311.333L246.333 311.667L245.667 311.333M249 311L250 321L251 321L249 311z"/>
<path style="fill:#a99059; stroke:none;" d="M250 311L251 312L250 311z"/>
<path style="fill:#e4cd8b; stroke:none;" d="M225 313L226 314L225 313z"/>
<path style="fill:#e2bf6b; stroke:none;" d="M265 313L266 314L265 313z"/>
<path style="fill:#e4cd8b; stroke:none;" d="M271 314L272 315L271 314M275 314L274 316L276 316L275 314M234 317L235 318L238 316L234 317M301 315L301 323L302 323L301 315M267.667 316.333L268.333 316.667L267.667 316.333M239 317L240 318L239 317M242 317L245 319L242 317M166 319L167 320L166 319M232 319L233 320L232 319M238 319L239 320L238 319z"/>
<path style="fill:#4b4842; stroke:none;" d="M164.333 320.667L164.667 321.333L164.333 320.667z"/>
<path style="fill:#e4cd8b; stroke:none;" d="M165.333 320.667L165.667 321.333L165.333 320.667M177 320L178 321L177 320M183 320L184 321L183 320M191.333 320.667L191.667 321.333L191.333 320.667M297 320L298 321L297 320M180.333 321.667L180.667 322.333L180.333 321.667M240 321L240 324L242 323L242 322L240 321z"/>
<path style="fill:#a99059; stroke:none;" d="M250 321L251 322L250 321z"/>
<path style="fill:#e4cd8b; stroke:none;" d="M270.667 321.333L271.333 321.667L270.667 321.333M182 322L183 326L184 326L182 322M188 322L189 323L188 322z"/>
<path style="fill:#a99059; stroke:none;" d="M251.667 322.333L252.333 322.667L251.667 322.333M261.667 322.333L262.333 322.667L261.667 322.333M165 323L165 326L166 326L165 323z"/>
<path style="fill:#e4cd8b; stroke:none;" d="M177 323L176 326L177 323z"/>
<path style="fill:#a99059; stroke:none;" d="M178 323L179 324L178 323z"/>
<path style="fill:#e2bf6b; stroke:none;" d="M259 324L260 325L259 324M261 324L262 325L261 324z"/>
<path style="fill:#e4cd8b; stroke:none;" d="M268 325L268 326L272 325L268 325z"/>
<path style="fill:#4b4842; stroke:none;" d="M165.333 326.667L165.667 327.333L165.333 326.667z"/>
<path style="fill:#e4cd8b; stroke:none;" d="M171 326L172 327L171 326M251 326L252 327L251 326M263 326L264 327L263 326M265 326L266 327L265 326z"/>
<path style="fill:#4b4842; stroke:none;" d="M342 326L342 329L343 329L342 326z"/>
<path style="fill:#e4cd8b; stroke:none;" d="M177 327C177.704 331.519 179.716 333.526 184 335L184 334L177 327M186 327L189 329L186 327M197 327L197 328L200 329L197 327z"/>
<path style="fill:#a99059; stroke:none;" d="M341 327L338 340L339 340L341 327M166.333 328.667L166.667 329.333L166.333 328.667z"/>
<path style="fill:#e4cd8b; stroke:none;" d="M168 328L168 329L171 329L168 328M172 328L172 331L173 331L172 328M174 328L175 329L174 328M193 328L193 329L196 329L193 328M167 329L168 330L167 329z"/>
<path style="fill:#4b4842; stroke:none;" d="M166 330L167 331L166 330z"/>
<path style="fill:#e4cd8b; stroke:none;" d="M168 330L169 331L168 330M170 330L174 334L170 330M262 330L263 336L266 335L265 330L262 330M196 333L196 334L202 334C200.119 331.516 198.816 331.911 196 333M251 331L251 334C253.006 332.873 253.006 332.127 251 331z"/>
<path style="fill:#4b4842; stroke:none;" d="M341.333 331.667L341.667 332.333L341.333 331.667z"/>
<path style="fill:#a99059; stroke:none;" d="M167 332L168 333L167 332z"/>
<path style="fill:#e4cd8b; stroke:none;" d="M176 332L175 335L176 332M254.667 332.333L255.333 332.667L254.667 332.333z"/>
<path style="fill:#4b4842; stroke:none;" d="M167 333L168 334L167 333z"/>
<path style="fill:#e4cd8b; stroke:none;" d="M169 333L170 334L169 333M297 333L291 341L291 342C294.707 340.228 298.154 337.414 297 333z"/>
<path style="fill:#a99059; stroke:none;" d="M168 334L169 335L168 334z"/>
<path style="fill:#e4cd8b; stroke:none;" d="M178 334L181 337L178 334M185 335L186 339L184 339L185 342L189 340L188 337L195 336L194 340L195 340L196 336L208 345L208 344L205 344L206 341L200 335L185 335z"/>
<path style="fill:#4b4842; stroke:none;" d="M168.333 335.667L168.667 336.333L168.333 335.667z"/>
<path style="fill:#e4cd8b; stroke:none;" d="M170 335L170 337L172 335L170 335z"/>
<path style="fill:#4b4842; stroke:none;" d="M340.333 335.667L340.667 336.333L340.333 335.667z"/>
<path style="fill:#e4cd8b; stroke:none;" d="M173 336L174 337L173 336M202 336L203 337L202 336M205.667 336.333L206.333 336.667L205.667 336.333M211 336L212 337L211 336M293 336L294 337L293 336z"/>
<path style="fill:#4b4842; stroke:none;" d="M169.333 337.667L169.667 338.333L169.333 337.667z"/>
<path style="fill:#e4cd8b; stroke:none;" d="M171 337L171 340L172 340L171 337M175 337L175 338L178 339L178 338L178 337L175 337M182.667 337.333L183.333 337.667L182.667 337.333M174 338L173 342L174 338z"/>
<path style="fill:#4b4842; stroke:none;" d="M339 338L340 339L339 338M170 339L171 340L170 339z"/>
<path style="fill:#e4cd8b; stroke:none;" d="M207 339L208 340L207 339M289 339L289 341L291 339L289 339z"/>
<path style="fill:#a99059; stroke:none;" d="M171 340L172 341L171 340z"/>
<path style="fill:#e4cd8b; stroke:none;" d="M192 340L193 341L192 340M215 340L216 341L215 340M217 340L218 341L217 340M221 340C218.592 347.194 212.19 349.831 205 350L205 351L208 351L207 354L202 352L202 353C210.023 356.279 220.311 347.271 223 340L221 340z"/>
<path style="fill:#4b4842; stroke:none;" d="M338 340L339 341L338 340z"/>
<path style="fill:#a99059; stroke:none;" d="M172 341L174 343L172 341z"/>
<path style="fill:#e4cd8b; stroke:none;" d="M175 343L178 341L175 343M196 341L197 342L196 341z"/>
<path style="fill:#a99059; stroke:none;" d="M337 341L336 343L337 341z"/>
<path style="fill:#4b4842; stroke:none;" d="M172 342L173 343L172 342z"/>
<path style="fill:#e4cd8b; stroke:none;" d="M190.667 342.333L191.333 342.667L190.667 342.333z"/>
<path style="fill:#a99059; stroke:none;" d="M199.333 342.667L199.667 343.333L199.333 342.667z"/>
<path style="fill:#e4cd8b; stroke:none;" d="M208 342L208 343L211 343L208 342M216 342L210 344L210 345C212.233 344.887 217.146 344.877 216 342z"/>
<path style="fill:#4b4842; stroke:none;" d="M337 342L338 343L337 342M173 343L174 344L173 343z"/>
<path style="fill:#e4cd8b; stroke:none;" d="M179 343L185 348L189 353L185 350L185 349L191 350L191 349L189 346L192 348L190 346L190 345L193 345L193 344C186.581 345.27 185.078 346.223 179 343M197 343L198 344L197 343M289.667 343.333L290.333 343.667L289.667 343.333z"/>
<path style="fill:#4b4842; stroke:none;" d="M336 343L337 344L336 343M174 344L175 345L174 344z"/>
<path style="fill:#e4cd8b; stroke:none;" d="M177 344L178 345L177 344M183 344L184 345L183 344z"/>
<path style="fill:#a99059; stroke:none;" d="M335 344L334 346L335 344z"/>
<path style="fill:#4b4842; stroke:none;" d="M175 345L176 346L175 345z"/>
<path style="fill:#e4cd8b; stroke:none;" d="M178 345L178 347L180 347L178 345M197 345L196 350L197 350L197 345M282.667 345.333L283.333 345.667L282.667 345.333z"/>
<path style="fill:#4b4842; stroke:none;" d="M335 345L336 346L335 345M176 346L177 347L176 346z"/>
<path style="fill:#e4cd8b; stroke:none;" d="M199 346L200 351L204 350L204 349L199 346M221 346L223 348L223 346L221 346z"/>
<path style="fill:#4b4842; stroke:none;" d="M334 346L335 347L334 346M177 347L179 349L177 347z"/>
<path style="fill:#a99059; stroke:none;" d="M178 347L179 348L178 347z"/>
<path style="fill:#e4cd8b; stroke:none;" d="M180 347L181 348L180 347M193 347L194 348L193 347M284 347L279 348C280.681 350.241 283.503 349.906 284 347z"/>
<path style="fill:#a99059; stroke:none;" d="M332 347L332 349L334 347L332 347M179 348L180 349L179 348z"/>
<path style="fill:#e4cd8b; stroke:none;" d="M182 348L183 351L184 351L184 348L182 348M219.667 348.333L220.333 348.667L219.667 348.333M274 348L274 350L276 350L276 348L274 348z"/>
<path style="fill:#a99059; stroke:none;" d="M180 349L181 350L180 349M328 352L331 349L328 352z"/>
<path style="fill:#4b4842; stroke:none;" d="M331 349L332 350L331 349M181 350L182 351L181 350z"/>
<path style="fill:#a99059; stroke:none;" d="M182 350L183 351L182 350z"/>
<path style="fill:#4b4842; stroke:none;" d="M330 350L331 351L330 350M183 351L185 353L183 351z"/>
<path style="fill:#a99059; stroke:none;" d="M184 351L185 352L184 351z"/>
<path style="fill:#e4cd8b; stroke:none;" d="M215 351L216 352L215 351M277 351L278 352L277 351z"/>
<path style="fill:#4b4842; stroke:none;" d="M329 351L330 352L329 351z"/>
<path style="fill:#a99059; stroke:none;" d="M185 352L186 353L185 352z"/>
<path style="fill:#e4cd8b; stroke:none;" d="M190 353L190 354L198 354L198 355L196 355L196 356L202 355L202 354L199 352L190 353M261 352L261 353L269 354L269 355L264 354L257 355L257 357L261 358L261 357L258 355L272 355L261 352M271 352L271 353L275 354L275 353L271 352z"/>
<path style="fill:#a99059; stroke:none;" d="M317 356L317 357L328 353L317 356z"/>
<path style="fill:#4b4842; stroke:none;" d="M186 353L187 354L186 353z"/>
<path style="fill:#a99059; stroke:none;" d="M187 353L188 354L187 353z"/>
<path style="fill:#e4cd8b; stroke:none;" d="M212 353L213 354L212 353z"/>
<path style="fill:#4b4842; stroke:none;" d="M326 353L327 354L326 353M188 354L189 355L188 354z"/>
<path style="fill:#a99059; stroke:none;" d="M189 354L190 355L189 354z"/>
<path style="fill:#4b4842; stroke:none;" d="M324 354L325 355L324 354M191 355L192 356L191 355z"/>
<path style="fill:#a99059; stroke:none;" d="M192.667 355.333L193.333 355.667L192.667 355.333z"/>
<path style="fill:#e4cd8b; stroke:none;" d="M207 355L205 357L205 358L210 355L207 355M214.667 355.333L215.333 355.667L214.667 355.333M255 355L256 356L255 355z"/>
<path style="fill:#4b4842; stroke:none;" d="M322 355L323 356L322 355M194 356L195 357L194 356z"/>
<path style="fill:#a99059; stroke:none;" d="M195 356L196 357L195 356z"/>
<path style="fill:#e4cd8b; stroke:none;" d="M201 356L201 357L205 357L201 356M211.667 356.333L212.333 356.667L211.667 356.333z"/>
<path style="fill:#4b4842; stroke:none;" d="M320 356L321 357L320 356M197.667 357.333L198.333 357.667L197.667 357.333z"/>
<path style="fill:#a99059; stroke:none;" d="M199.667 357.333L200.333 357.667L199.667 357.333z"/>
<path style="fill:#e4cd8b; stroke:none;" d="M214.667 357.333L215.333 357.667L214.667 357.333M224 360L235 360C231.434 357.822 226.643 356.04 224 360z"/>
<path style="fill:#a99059; stroke:none;" d="M309 358L309 359L314 358L309 358M315 357L316 358L315 357z"/>
<path style="fill:#4b4842; stroke:none;" d="M316.667 357.333L317.333 357.667L316.667 357.333M201 358L201 359L204 359L201 358z"/>
<path style="fill:#a99059; stroke:none;" d="M204.667 358.333L205.333 358.667L204.667 358.333z"/>
<path style="fill:#e4cd8b; stroke:none;" d="M209 358L209 359L212 359L209 358M250.667 358.333L251.333 358.667L250.667 358.333z"/>
<path style="fill:#4b4842; stroke:none;" d="M313 358L314 359L313 358M206 359L206 360L210 360L206 359z"/>
<path style="fill:#a99059; stroke:none;" d="M210 359L210 360L213 360L210 359z"/>
<path style="fill:#e4cd8b; stroke:none;" d="M216 359L216 360L219 360L216 359M253 359L253 360L256 360L253 359z"/>
<path style="fill:#a99059; stroke:none;" d="M304 359L304 360L307 360L304 359z"/>
<path style="fill:#4b4842; stroke:none;" d="M307 359L307 360L310 360L307 359M214 360L214 361L217 361L214 360z"/>
<path style="fill:#a99059; stroke:none;" d="M217 360L217 361L226 361L217 360z"/>
<path style="fill:#e4cd8b; stroke:none;" d="M236 360L236 361L239 361L236 360M242.667 360.333L243.333 360.667L242.667 360.333M246 360L246 361L252 361L246 360z"/>
<path style="fill:#a99059; stroke:none;" d="M288 360C273.015 364.429 252.639 361 237 361L237 362C252.931 362 273.736 365.512 289 361L288 360M292 360L292 361L300 361L292 360z"/>
<path style="fill:#4b4842; stroke:none;" d="M300 360L300 361L304 361L300 360M227 361L227 362L237 362L227 361M288 361L288 362L294 362L288 361z"/>
</svg>
