<?xml version="1.0" standalone="no"?>
<!DOCTYPE svg PUBLIC "-//W3C//DTD SVG 20010904//EN"
 "http://www.w3.org/TR/2001/REC-SVG-20010904/DTD/svg10.dtd">
<svg version="1.0" xmlns="http://www.w3.org/2000/svg"
 width="1920.000000pt" height="1920.000000pt" viewBox="0 0 1920.000000 1920.000000"
 preserveAspectRatio="xMidYMid meet">
<metadata>
Created by potrace 1.16, written by Peter Selinger 2001-2019
</metadata>
<g transform="translate(0.000000,1920.000000) scale(0.100000,-0.100000)"
fill="#000000" stroke="none">
<path d="M8827 16383 c-4 -3 -7 -15 -7 -25 0 -17 -6 -18 -59 -12 -59 6 -59 6
-65 -22 -3 -16 -35 -236 -72 -489 -36 -253 -67 -461 -69 -463 -1 -1 -33 73
-71 165 -171 422 -244 597 -251 604 -7 7 -964 -374 -3033 -1205 -448 -181
-821 -330 -828 -333 -8 -4 -11 -15 -7 -33 5 -25 2 -29 -46 -48 -39 -17 -50
-26 -46 -39 2 -10 215 -544 472 -1188 257 -643 627 -1570 822 -2060 195 -489
358 -894 363 -899 10 -10 990 23 1003 34 4 3 -276 714 -623 1579 -346 865
-630 1576 -630 1580 0 5 19 21 43 36 114 74 180 132 221 195 108 165 141 335
101 523 -10 48 -16 89 -14 90 13 11 1043 418 1082 427 71 18 89 9 133 -66 75
-128 221 -234 380 -274 102 -26 258 -27 332 -1 l53 18 10 -26 c25 -65 1593
-3976 1595 -3980 4 -4 887 28 891 33 2 1 -31 86 -72 189 -41 103 -75 189 -75
191 0 2 37 9 82 16 217 31 416 130 576 284 174 167 279 368 318 605 50 303
-66 656 -291 884 -108 109 -272 216 -390 255 -90 30 -356 66 -440 59 -165 -13
-395 -100 -533 -201 -34 -25 -63 -46 -65 -46 -2 0 -81 196 -177 435 l-174 435
86 595 c47 328 88 598 91 602 4 3 56 10 115 15 60 4 130 14 155 22 119 36 269
151 346 267 22 32 53 101 71 154 18 54 37 95 45 95 23 0 989 -140 1074 -156
92 -17 135 -34 145 -59 3 -9 6 -46 6 -82 0 -219 153 -444 376 -554 35 -17 84
-34 109 -36 30 -4 45 -10 45 -20 0 -8 -126 -892 -280 -1965 -154 -1073 -279
-1952 -278 -1953 12 -7 839 32 846 40 10 12 688 4757 737 5166 l7 57 -63 11
c-107 18 -4033 581 -4054 581 -7 0 -15 -3 -18 -7z"/>
<path d="M7620 12497 c-84 -26 -224 -83 -309 -126 -154 -79 -346 -304 -425
-501 -75 -184 -95 -401 -56 -590 89 -434 421 -760 849 -835 535 -94 1046 233
1188 761 24 89 27 117 27 269 1 188 -15 274 -76 419 -95 226 -322 449 -555
546 -140 59 -212 72 -398 76 -156 4 -176 2 -245 -19z"/>
<path d="M14263 7127 l-263 -10 0 -36 c0 -106 -65 -246 -156 -336 -213 -211
-556 -213 -763 -4 -74 74 -115 145 -143 246 l-23 83 -54 0 -54 0 6 -162 c25
-623 29 -733 32 -736 1 -1 352 11 781 28 428 16 868 33 977 36 l197 7 0 66 c0
36 -7 228 -15 426 -8 198 -15 370 -15 383 0 22 -2 22 -122 20 -68 -1 -241 -6
-385 -11z"/>
</g>
</svg>
