<?xml version="1.0" standalone="yes"?>
<svg xmlns="http://www.w3.org/2000/svg" width="612" height="612">
<path style="fill:#ffffff; stroke:none;" d="M0 0L0 612L612 612L612 0L0 0z"/>
<path style="fill:#e2bf6a; stroke:none;" d="M281 219C298.597 218.637 319.807 210.262 337 214C338.195 211.399 339.248 210.394 336 210L336 209L339 206L340 206L341 208L344 203L341 205L346 202L350 195L347 197L356 187L353 189L361 180L359 181L359 180L360 177L362 179L361 172L363 173L358 168L358 170L357 168L357 167L349 168L346 171L343 169L344 171L332 171L332 170L337 170L337 169L327 168C326.522 165.132 325.156 164.156 323 162C310.186 149.186 300.931 164.017 289 167C282.955 168.511 277.046 165.262 272 164C267.978 162.995 251.206 159.956 249 164C247.117 167.452 254.466 174.371 256 177C262.197 187.624 268.778 198.333 275 209C276.977 212.39 281.384 217.466 281 219z"/>
<path style="fill:#b19b5b; stroke:none;" d="M321 162L320 166L324 168L324 167L321 164L326 167L321 162M259 166L260 167L259 166M275 167L276 168L275 167M327 167L328 168L327 167M352.667 168.333L353.333 168.667L352.667 168.333M355 168L358 170L355 168M329 169L329 170L332 170L329 169M346 170L346 171L350 170L346 170M261 170L262 171L261 170M332 170L332 171L344 171L332 170M359 170L361 172L361 170L359 170M351 171L352 172L351 171M361 172L362 176L363 176L361 172M319 173L319 176L320 176L319 173M285.333 174.667L285.667 175.333L285.333 174.667M351 174L352 175L351 174M360 175L362 177L360 175M360 177L359 181L360 181L360 177M269 181L270 182L269 181M318.333 182.667L318.667 183.333L318.333 182.667M288 183L289 184L288 183M353 183L354 184L353 183M357 183L356 185L357 183M352 185L353 186L352 185M355 185L353 189L355 185M318 186L318 192L319 192L318 186M352 189L353 190L352 189M351 191L350 193L351 191M276 192L277 193L276 192M347 192L348 193L347 192M345.333 193.667L345.667 194.333L345.333 193.667M349 193L347 197L349 193M344 196L344 201L345 201L347 197L344 196M337 200L338 201L337 200M340 200L341 201L340 200M343 201L341 205L343 201M339 206L339 209L340 209L339 206M336 209L336 210L339 210L336 209M287 210L288 211L287 210M316.333 211.667L316.667 212.333L316.333 211.667M336 211L337 212L336 211M330 213L330 214L333 214L330 213z"/>
<path style="fill:#6b5e4b; stroke:none;" d="M333 213L333 214L336 214L333 213z"/>
<path style="fill:#b19b5b; stroke:none;" d="M290 214L291 215L290 214M322.667 214.333L323.333 214.667L322.667 214.333z"/>
<path style="fill:#6b5e4b; stroke:none;" d="M324 214L324 215L327 215L324 214z"/>
<path style="fill:#444445; stroke:none;" d="M316 230C317.408 235.932 316.368 241.259 314.481 247C313.672 249.459 310.937 253.811 312.388 256.396C314.78 260.655 319.115 255.167 320.123 252.981C323.175 246.368 325.092 238.08 323 231C332.059 237.516 338.794 249.128 343.73 259C345.544 262.628 347.251 271.788 351.388 273.338C358.84 276.129 354.449 264.424 353.421 262C348.383 250.127 340.748 240.8 334 230C337.583 229.402 340.66 225.924 335.851 223.742C332.721 222.322 328.354 223 325 223C328.156 221.481 336.166 221.758 337.248 217.91C338.79 212.432 328.551 214.237 326 214.576C312.833 216.326 297.795 215.612 285.054 219.429C282.41 220.221 275.195 225.854 278.786 228.977C281.206 231.081 287.036 230 290 230L300 230C305.296 230 310.753 230.586 316 230z"/>
<path style="fill:#b19b5b; stroke:none;" d="M337 214L338 215L337 214M314.667 215.333L315.333 215.667L314.667 215.333z"/>
<path style="fill:#6b5e4b; stroke:none;" d="M316.667 215.333L317.333 215.667L316.667 215.333z"/>
<path style="fill:#b19b5b; stroke:none;" d="M304 216L304 217L307 217L304 216z"/>
<path style="fill:#6b5e4b; stroke:none;" d="M307.667 216.333L308.333 216.667L307.667 216.333z"/>
<path style="fill:#e2bf6a; stroke:none;" d="M338.333 216.667L338.667 217.333L338.333 216.667z"/>
<path style="fill:#b19b5b; stroke:none;" d="M281 217L282 218L281 217M296.667 217.333L297.333 217.667L296.667 217.333z"/>
<path style="fill:#6b5e4b; stroke:none;" d="M298.667 217.333L299.333 217.667L298.667 217.333z"/>
<path style="fill:#b19b5b; stroke:none;" d="M287 218L287 219L290 219L287 218z"/>
<path style="fill:#6b5e4b; stroke:none;" d="M290.667 218.333L291.333 218.667L290.667 218.333z"/>
<path style="fill:#b19b5b; stroke:none;" d="M282 219L283 220L282 219z"/>
<path style="fill:#6b5e4b; stroke:none;" d="M283 219L284 220L283 219M320.667 219.333L321.333 219.667L320.667 219.333M337 219L338 220L337 219z"/>
<path style="fill:#e2bf6a; stroke:none;" d="M281 220L282 221L281 220M336 220L337 221L336 220z"/>
<path style="fill:#6b5e4b; stroke:none;" d="M327 221L327 222L330 222L327 221z"/>
<path style="fill:#e2bf6a; stroke:none;" d="M330 221L331 222L330 221z"/>
<path style="fill:#6b5e4b; stroke:none;" d="M325 222L326 223L325 222z"/>
<path style="fill:#b19b5b; stroke:none;" d="M326 222L327 223L326 222z"/>
<path style="fill:#ffffff; stroke:none;" d="M327 222L328 223L327 222z"/>
<path style="fill:#e2bf6a; stroke:none;" d="M328 222L329 223L328 222z"/>
<path style="fill:#b19b5b; stroke:none;" d="M279 223L280 224L279 223z"/>
<path style="fill:#6b5e4b; stroke:none;" d="M280 223L281 224L280 223M282 223L283 224L282 223M336 223L337 224L336 223z"/>
<path style="fill:#b19b5b; stroke:none;" d="M337 223L338 224L337 223M338 224L339 225L338 224z"/>
<path style="fill:#6b5e4b; stroke:none;" d="M277 225L278 226L277 225z"/>
<path style="fill:#b19b5b; stroke:none;" d="M339.333 226.667L339.667 227.333L339.333 226.667M277 228L278 229L277 228z"/>
<path style="fill:#e2bf6a; stroke:none;" d="M277 229C266.306 241.363 254.186 251.884 244.28 265.09C223.948 292.194 210.03 325.843 203.4 359C198.985 381.074 197.954 408.341 216.04 424.819C228.144 435.847 245.274 439.273 261 441.155C292.278 444.898 325.639 443.475 357 441L357 442L354 442L354 443L364 443L364 442L362 442L362 441L372 442L372 441L369 441L369 440L378 441L382 438L381 440L382 440L387 439L392 435L399 434L397 433L397 432L412 422C411.47 419.351 411.572 418.393 414 419L416 414L413 416L415 411L416 413L417 413L416 409L418 410L418 409C417.017 406.05 416.513 405.378 419 406L420 396L419 396L419 400L418 400C418.603 392.364 423.073 373.761 417 368L418 363L417 363L417 365L416 365L417 358L416 353L415 353L414 356L415 349C410.23 349 411.395 341.283 412 338L411 338L411 340L410 340L411 334L409 335L410 331L409 331L409 333L408 333L407 328L408 326L408 325L407 325L407 327L406 327L407 322C404.564 322 405.385 321.214 406 319L404 320L405 316L404 316L404 318L403 318L404 313L402 314L403 311L401 312L401 311L402 309L402 308L400 309L400 308C400.346 305.206 400.188 301.926 397 302L398 299L396 300L397 297L396 295L394 296L395 293L393 294L394 291L392 292L393 289L389 285L390 285L391 288L392 288L377 267L380 269L373 261L375 264L373 260C370.869 257.008 368.821 253.729 365 255L365 252L363 253L364 250L361 251C360.597 241.543 343.702 231.712 335 231C340.803 239.782 366.377 269.851 350 276C345.882 260.944 336.805 241.426 324 232L320 258C306.543 259.881 316 240.047 316 231C305.449 231.679 286.302 234.173 277 229z"/>
<path style="fill:#b19b5b; stroke:none;" d="M338 229L339 230L338 229M278.667 230.333L279.333 230.667L278.667 230.333z"/>
<path style="fill:#6b5e4b; stroke:none;" d="M280 230L280 231L313 231L280 230M314.667 230.333L315.333 230.667L314.667 230.333M334 232L338 231L334 232z"/>
<path style="fill:#ffffff; stroke:none;" d="M314 231L315 232L314 231z"/>
<path style="fill:#6b5e4b; stroke:none;" d="M316.333 231.667L316.667 232.333L316.333 231.667M323.667 231.333L324.333 231.667L323.667 231.333z"/>
<path style="fill:#b19b5b; stroke:none;" d="M338 231L339 232L338 231M325 232L326 233L325 232z"/>
<path style="fill:#6b5e4b; stroke:none;" d="M330 232L331 233L330 232M335 232L336 233L335 232z"/>
<path style="fill:#b19b5b; stroke:none;" d="M339 232L343 235L343 239L344 239L343 236L361 249L339 232M316 233L316 237L317 237L316 233z"/>
<path style="fill:#6b5e4b; stroke:none;" d="M326 233L327 234L326 233M334 233L335 234L334 233z"/>
<path style="fill:#b19b5b; stroke:none;" d="M336 233L337 234L336 233z"/>
<path style="fill:#6b5e4b; stroke:none;" d="M327 234L328 235L327 234z"/>
<path style="fill:#b19b5b; stroke:none;" d="M337 234L339 236L337 234z"/>
<path style="fill:#6b5e4b; stroke:none;" d="M328 235L329 236L328 235M335 235L336 236L335 235M337 235L338 236L337 235M338 236L339 237L338 236M316 237L316 240L317 240L316 237M321 237L322 238L321 237z"/>
<path style="fill:#b19b5b; stroke:none;" d="M326 237L327 238L326 237M329 237L330 238L329 237z"/>
<path style="fill:#6b5e4b; stroke:none;" d="M334 237L335 238L334 237M339 237L340 238L339 237z"/>
<path style="fill:#b19b5b; stroke:none;" d="M328 238L329 239L328 238M330 238L331 239L330 238M340 238L341 239L340 238z"/>
<path style="fill:#6b5e4b; stroke:none;" d="M331 239L332 240L331 239z"/>
<path style="fill:#b19b5b; stroke:none;" d="M341 239L342 240L341 239M293 240L294 241L293 240M326 240L327 241L326 240z"/>
<path style="fill:#6b5e4b; stroke:none;" d="M332 240L333 241L332 240M337 240L338 241L337 240M341 240L342 241L341 240z"/>
<path style="fill:#b19b5b; stroke:none;" d="M347 240L348 243L349 243L347 240z"/>
<path style="fill:#6b5e4b; stroke:none;" d="M323.333 241.667L323.667 242.333L323.333 241.667z"/>
<path style="fill:#b19b5b; stroke:none;" d="M331 241L332 242L331 241M342 241L344 243L342 241M291 242L292 243L291 242z"/>
<path style="fill:#ffffff; stroke:none;" d="M324 242L325 243L324 242z"/>
<path style="fill:#b19b5b; stroke:none;" d="M333 242L334 243L333 242z"/>
<path style="fill:#6b5e4b; stroke:none;" d="M342 242L343 243L342 242z"/>
<path style="fill:#b19b5b; stroke:none;" d="M345 242L346 245L347 245L345 242M315 243L316 244L315 243M323 243L324 244L323 243M327 243L331 249L332 244L327 243z"/>
<path style="fill:#6b5e4b; stroke:none;" d="M334 243L335 244L334 243M339.333 243.667L339.667 244.333L339.333 243.667M343 243L344 244L343 243z"/>
<path style="fill:#b19b5b; stroke:none;" d="M289 244L290 245L289 244z"/>
<path style="fill:#ffffff; stroke:none;" d="M314 244L315 245L314 244z"/>
<path style="fill:#b19b5b; stroke:none;" d="M344 244L345 245L344 244M349.333 244.667L349.667 245.333L349.333 244.667M352 244L353 245L352 244z"/>
<path style="fill:#e2bf6a; stroke:none;" d="M329 245L331 248L329 245z"/>
<path style="fill:#b19b5b; stroke:none;" d="M335 245L336 246L335 245M314 246L315 247L314 246z"/>
<path style="fill:#6b5e4b; stroke:none;" d="M322 246L323 247L322 246z"/>
<path style="fill:#b19b5b; stroke:none;" d="M334 246L335 247L334 246z"/>
<path style="fill:#6b5e4b; stroke:none;" d="M336 246L337 247L336 246M345 246L346 247L345 246M314 247L315 248L314 247z"/>
<path style="fill:#b19b5b; stroke:none;" d="M322 247L323 248L322 247M346 247L347 248L346 247M348 247L349 248L348 247M337 248L338 249L337 248M350 248L351 249L350 248M313 249L314 250L313 249z"/>
<path style="fill:#6b5e4b; stroke:none;" d="M321 249L322 250L321 249M338 249L339 250L338 249M345 249L346 250L345 249z"/>
<path style="fill:#b19b5b; stroke:none;" d="M347 249L348 250L347 249M361 249L361 251L363 249L361 249M282 250L284 253L282 250M285 250L286 251L285 250M321 250L322 251L321 250M312 251L313 252L312 251z"/>
<path style="fill:#6b5e4b; stroke:none;" d="M339 251L340 252L339 251z"/>
<path style="fill:#b19b5b; stroke:none;" d="M348 251L349 252L348 251M360 251L363 254L360 251M363 251L363 253L365 251L363 251z"/>
<path style="fill:#6b5e4b; stroke:none;" d="M312 252L313 253L312 252M320 252L321 253L320 252z"/>
<path style="fill:#b19b5b; stroke:none;" d="M338 252L337 257L338 257L338 252M365 252L366 255L365 252M311 253L312 254L311 253z"/>
<path style="fill:#6b5e4b; stroke:none;" d="M316 253L317 254L316 253z"/>
<path style="fill:#b19b5b; stroke:none;" d="M340 253L341 254L340 253z"/>
<path style="fill:#6b5e4b; stroke:none;" d="M349 253L350 254L349 253M311 254L312 255L311 254M319 254L320 255L319 254M341 254L342 255L341 254M348 254L349 255L348 254z"/>
<path style="fill:#b19b5b; stroke:none;" d="M319 255L320 256L319 255z"/>
<path style="fill:#e2bf6a; stroke:none;" d="M337 255L338 256L337 255z"/>
<path style="fill:#b19b5b; stroke:none;" d="M341 255L342 256L341 255z"/>
<path style="fill:#6b5e4b; stroke:none;" d="M350 255L351 256L350 255z"/>
<path style="fill:#b19b5b; stroke:none;" d="M280 256L278 259L280 256z"/>
<path style="fill:#6b5e4b; stroke:none;" d="M311 256L312 257L311 256M318 256L319 257L318 256M342 256L343 257L342 256z"/>
<path style="fill:#b19b5b; stroke:none;" d="M356 256L356 259L357 259L356 256M368 256L369 257L368 256M318 257L319 258L318 257z"/>
<path style="fill:#ffffff; stroke:none;" d="M319 257L320 258L319 257z"/>
<path style="fill:#b19b5b; stroke:none;" d="M342 257L343 258L342 257z"/>
<path style="fill:#6b5e4b; stroke:none;" d="M351 257L352 258L351 257z"/>
<path style="fill:#b19b5b; stroke:none;" d="M313 258L314 259L313 258z"/>
<path style="fill:#6b5e4b; stroke:none;" d="M314.667 258.333L315.333 258.667L314.667 258.333z"/>
<path style="fill:#b19b5b; stroke:none;" d="M316 258L317 259L316 258M340 258L341 259L340 258z"/>
<path style="fill:#6b5e4b; stroke:none;" d="M343 258L344 259L343 258z"/>
<path style="fill:#b19b5b; stroke:none;" d="M354 258L355 259L354 258M359 258L360 259L359 258M369 258L371 260L371 258L369 258z"/>
<path style="fill:#ffffff; stroke:none;" d="M314 259L315 260L314 259z"/>
<path style="fill:#b19b5b; stroke:none;" d="M338 259L337 261L338 259M343 259L344 260L343 259M352 259L353 260L352 259M342.333 260.667L342.667 261.333L342.333 260.667z"/>
<path style="fill:#6b5e4b; stroke:none;" d="M344 260L345 261L344 260z"/>
<path style="fill:#b19b5b; stroke:none;" d="M358.333 260.667L358.667 261.333L358.333 260.667M371 260L375 264L371 260M339 261L340 262L339 261M344 261L345 262L344 261z"/>
<path style="fill:#6b5e4b; stroke:none;" d="M349 261L350 262L349 261z"/>
<path style="fill:#b19b5b; stroke:none;" d="M353 261L354 262L353 261M355 261L356 262L355 261M369.333 261.667L369.667 262.333L369.333 261.667z"/>
<path style="fill:#6b5e4b; stroke:none;" d="M345.333 262.667L345.667 263.333L345.333 262.667M353 262L354 263L353 262z"/>
<path style="fill:#b19b5b; stroke:none;" d="M337 263L339 265L339 263L337 263M341 263L342 264L341 263M343 263L344 264L343 263M359 263L360 264L359 263z"/>
<path style="fill:#6b5e4b; stroke:none;" d="M349 264L350 265L349 264M354 264L355 265L354 264z"/>
<path style="fill:#b19b5b; stroke:none;" d="M357 264L358 265L357 264M375 264L376 265L375 264z"/>
<path style="fill:#6b5e4b; stroke:none;" d="M346 265L347 266L346 265z"/>
<path style="fill:#b19b5b; stroke:none;" d="M346 266L347 267L346 266M355 266L356 267L355 266M358 266L359 267L358 266M376 266L377 267L376 266z"/>
<path style="fill:#6b5e4b; stroke:none;" d="M347 267L348 268L347 267z"/>
<path style="fill:#b19b5b; stroke:none;" d="M377 267L380 271L377 267M347 268L348 269L347 268M345.333 269.667L345.667 270.333L345.333 269.667M356 269L357 270L356 269z"/>
<path style="fill:#6b5e4b; stroke:none;" d="M348 270L349 271L348 270M356 270L357 271L356 270z"/>
<path style="fill:#b19b5b; stroke:none;" d="M348 271L349 272L348 271M380 271L382 273L380 271M345 272L346 273L345 272z"/>
<path style="fill:#6b5e4b; stroke:none;" d="M349.333 272.667L349.667 273.333L349.333 272.667M356 272L350 274L350 275L356 272z"/>
<path style="fill:#b19b5b; stroke:none;" d="M377 272L378 273L377 272M356 273L357 274L356 273M359 273L360 274L359 273M346.333 274.667L346.667 275.333L346.333 274.667M355 274L356 275L355 274M343.667 275.333L344.333 275.667L343.667 275.333M350 275L351 276L350 275M357 275L357 276L360 276L357 275M383 275L387 281L383 275z"/>
<path style="fill:#ffffff; stroke:none;" d="M319 276L320 277L319 276z"/>
<path style="fill:#b19b5b; stroke:none;" d="M355 276L356 277L355 276M307 277L308 278L307 277z"/>
<path style="fill:#6b5e4b; stroke:none;" d="M308.667 277.333L309.333 277.667L308.667 277.333z"/>
<path style="fill:#444445; stroke:none;" d="M307 278L307 290C288.228 290.974 277.732 314.763 288.649 329.985C295.806 339.966 310.308 339.099 317.678 348.105C321.599 352.896 318.344 358.641 312.995 360.347C303.71 363.309 294.879 358.528 286 357L282 376L307 380L307 394C320.002 396.414 324.111 392.069 321 379C341.263 374.185 351.862 346.605 334.907 331.619C327.654 325.209 312.799 324.469 307.981 315.996C305.595 311.8 308.791 308.015 313.015 307.228C320.867 305.766 327.668 308.999 335 311L340 293L321 289C324.511 277.122 316.808 276.179 307 278z"/>
<path style="fill:#b19b5b; stroke:none;" d="M320.667 277.333L321.333 277.667L320.667 277.333M345 277L344 280L345 277M349 277L350 278L349 277M357 279L360 278L357 279M352 278L353 279L352 278z"/>
<path style="fill:#ffffff; stroke:none;" d="M322 279L323 280L322 279z"/>
<path style="fill:#b19b5b; stroke:none;" d="M348 279L349 280L348 279M354.667 279.333L355.333 279.667L354.667 279.333M387 282L389 285L387 282M389 285L392 290L389 285M387 287L388 288L387 287z"/>
<path style="fill:#6b5e4b; stroke:none;" d="M310 288L311 289L310 288M321 288L322 289L321 288z"/>
<path style="fill:#ffffff; stroke:none;" d="M323.667 288.333L324.333 288.667L323.667 288.333M303 289L304 290L303 289z"/>
<path style="fill:#b19b5b; stroke:none;" d="M304.667 289.333L305.333 289.667L304.667 289.333z"/>
<path style="fill:#6b5e4b; stroke:none;" d="M306 289L307 290L306 289M325 289L326 290L325 289z"/>
<path style="fill:#b19b5b; stroke:none;" d="M326 289L327 290L326 289z"/>
<path style="fill:#ffffff; stroke:none;" d="M299 290L300 291L299 290z"/>
<path style="fill:#b19b5b; stroke:none;" d="M301 290L302 291L301 290z"/>
<path style="fill:#6b5e4b; stroke:none;" d="M330 290L331 291L330 290z"/>
<path style="fill:#b19b5b; stroke:none;" d="M331 290L332 291L331 290M392.333 290.667L392.667 291.333L392.333 290.667z"/>
<path style="fill:#ffffff; stroke:none;" d="M297 291L298 292L297 291z"/>
<path style="fill:#6b5e4b; stroke:none;" d="M299 291L300 292L299 291M333 291L334 292L333 291z"/>
<path style="fill:#b19b5b; stroke:none;" d="M334 291L335 292L334 291z"/>
<path style="fill:#ffffff; stroke:none;" d="M336 291L337 292L336 291z"/>
<path style="fill:#b19b5b; stroke:none;" d="M349 291L350 292L349 291z"/>
<path style="fill:#6b5e4b; stroke:none;" d="M297 292L298 293L297 292M300 292L301 293L300 292M305 292L306 293L305 292M309 292L310 293L309 292z"/>
<path style="fill:#b19b5b; stroke:none;" d="M337 292L338 293L337 292M393.333 292.667L393.667 293.333L393.333 292.667z"/>
<path style="fill:#ffffff; stroke:none;" d="M293 293L294 294L293 293z"/>
<path style="fill:#6b5e4b; stroke:none;" d="M295 293L296 294L295 293M320.667 293.333L321.333 293.667L320.667 293.333z"/>
<path style="fill:#b19b5b; stroke:none;" d="M340 293L341 294L340 293M293 294L294 295L293 294z"/>
<path style="fill:#6b5e4b; stroke:none;" d="M294 294L295 295L294 294M311 294L312 295L311 294z"/>
<path style="fill:#b19b5b; stroke:none;" d="M394.333 294.667L394.667 295.333L394.333 294.667M292 295L293 296L292 295z"/>
<path style="fill:#6b5e4b; stroke:none;" d="M321 295L322 296L321 295z"/>
<path style="fill:#b19b5b; stroke:none;" d="M351.333 295.667L351.667 296.333L351.333 295.667M291 296L292 297L291 296M393 296L394 299L395 299L393 296M395 296L396 297L395 296z"/>
<path style="fill:#ffffff; stroke:none;" d="M289 297L290 298L289 297z"/>
<path style="fill:#b19b5b; stroke:none;" d="M290 297L291 298L290 297z"/>
<path style="fill:#6b5e4b; stroke:none;" d="M339 297L340 298L339 297z"/>
<path style="fill:#b19b5b; stroke:none;" d="M289 298L290 299L289 298M339 298L340 299L339 298M392 298L393 299L392 298M396.333 298.667L396.667 299.333L396.333 298.667z"/>
<path style="fill:#6b5e4b; stroke:none;" d="M291 299L292 300L291 299z"/>
<path style="fill:#b19b5b; stroke:none;" d="M393.333 300.667L393.667 301.333L393.333 300.667M397.333 300.667L397.667 301.333L397.333 300.667M287 301L288 302L287 301z"/>
<path style="fill:#6b5e4b; stroke:none;" d="M289 301L290 302L289 301M292 301L290 304L294 304L292 301M338 301L339 302L338 301M287 302L288 303L287 302z"/>
<path style="fill:#b19b5b; stroke:none;" d="M338 302L339 303L338 302M396 302L395 304L396 302M286 303L287 304L286 303M398 303L399 304L398 303z"/>
<path style="fill:#6b5e4b; stroke:none;" d="M305 304L306 305L305 304z"/>
<path style="fill:#b19b5b; stroke:none;" d="M399 304L400 305L399 304z"/>
<path style="fill:#6b5e4b; stroke:none;" d="M308 305L309 306L308 305M310 305L311 306L310 305z"/>
<path style="fill:#b19b5b; stroke:none;" d="M337 305L338 306L337 305z"/>
<path style="fill:#6b5e4b; stroke:none;" d="M285 306L286 307L285 306M306 306L307 307L306 306M333 306L334 307L333 306z"/>
<path style="fill:#ffffff; stroke:none;" d="M284 307L285 308L284 307z"/>
<path style="fill:#6b5e4b; stroke:none;" d="M304 307L305 308L304 307M310 307L311 308L310 307z"/>
<path style="fill:#b19b5b; stroke:none;" d="M311 307L312 308L311 307M322.667 307.333L323.333 307.667L322.667 307.333z"/>
<path style="fill:#6b5e4b; stroke:none;" d="M324 307L325 308L324 307M336 307L337 308L336 307z"/>
<path style="fill:#b19b5b; stroke:none;" d="M400.333 307.667L400.667 308.333L400.333 307.667z"/>
<path style="fill:#6b5e4b; stroke:none;" d="M308 308L309 309L308 308z"/>
<path style="fill:#ffffff; stroke:none;" d="M324 308L325 309L324 308z"/>
<path style="fill:#b19b5b; stroke:none;" d="M326.667 308.333L327.333 308.667L326.667 308.333M336 308L337 309L336 308z"/>
<path style="fill:#ffffff; stroke:none;" d="M310 309L311 310L310 309z"/>
<path style="fill:#b19b5b; stroke:none;" d="M330 309L331 310L330 309M284 310L285 311L284 310M307 310L308 311L307 310z"/>
<path style="fill:#ffffff; stroke:none;" d="M331 310L332 311L331 310z"/>
<path style="fill:#6b5e4b; stroke:none;" d="M335 310L336 311L335 310z"/>
<path style="fill:#b19b5b; stroke:none;" d="M401.333 310.667L401.667 311.333L401.333 310.667z"/>
<path style="fill:#6b5e4b; stroke:none;" d="M284 311L284 315L285 315L284 311z"/>
<path style="fill:#ffffff; stroke:none;" d="M307.333 311.667L307.667 312.333L307.333 311.667z"/>
<path style="fill:#6b5e4b; stroke:none;" d="M306 312L307 313L306 312z"/>
<path style="fill:#b19b5b; stroke:none;" d="M400 312L401 313L400 312M402.333 312.667L402.667 313.333L402.333 312.667M310 313L311 314L310 313M401 315L402 316L401 315M403 315L403 318L404 318L403 315z"/>
<path style="fill:#6b5e4b; stroke:none;" d="M284 316L284 320L285 320L284 316M307 316L308 317L307 316z"/>
<path style="fill:#b19b5b; stroke:none;" d="M308 317L309 318L308 317z"/>
<path style="fill:#ffffff; stroke:none;" d="M310.333 317.667L310.667 318.333L310.333 317.667z"/>
<path style="fill:#b19b5b; stroke:none;" d="M309 318L310 319L309 318M404.333 318.667L404.667 319.333L404.333 318.667z"/>
<path style="fill:#6b5e4b; stroke:none;" d="M310 319L311 320L310 319z"/>
<path style="fill:#b19b5b; stroke:none;" d="M401 319L402 322L403 322L401 319M284 320L285 321L284 320M312 320L313 321L312 320z"/>
<path style="fill:#ffffff; stroke:none;" d="M314 320L315 321L314 320z"/>
<path style="fill:#b19b5b; stroke:none;" d="M405 320L405 323L406 323L405 320z"/>
<path style="fill:#6b5e4b; stroke:none;" d="M314 321L315 322L314 321z"/>
<path style="fill:#ffffff; stroke:none;" d="M316 321L317 322L316 321z"/>
<path style="fill:#b19b5b; stroke:none;" d="M317 322L318 323L317 322z"/>
<path style="fill:#6b5e4b; stroke:none;" d="M285 323L286 324L285 323M315 323L316 324L315 323M319 323L320 324L319 323z"/>
<path style="fill:#b19b5b; stroke:none;" d="M320 323L321 324L320 323M406 323L406 327L407 327L406 323M285 324L286 325L285 324z"/>
<path style="fill:#6b5e4b; stroke:none;" d="M312 324L313 325L312 324M322 324L323 325L322 324z"/>
<path style="fill:#ffffff; stroke:none;" d="M324 324L325 325L324 324z"/>
<path style="fill:#6b5e4b; stroke:none;" d="M315 326L315 327L319 326L315 326z"/>
<path style="fill:#b19b5b; stroke:none;" d="M286 326L287 327L286 326z"/>
<path style="fill:#6b5e4b; stroke:none;" d="M323 326L324 327L323 326z"/>
<path style="fill:#b19b5b; stroke:none;" d="M327 326L328 327L327 326M329 327L330 328L329 327M401 327L402 328L401 327M403 327L404 328L403 327M407 327L408 328L407 327M287 328L288 329L287 328M331 328L332 329L331 328z"/>
<path style="fill:#6b5e4b; stroke:none;" d="M332 329L333 330L332 329M294 330L293 332L294 330M333 330L335 332L333 330z"/>
<path style="fill:#b19b5b; stroke:none;" d="M334 330L336 332L334 330z"/>
<path style="fill:#ffffff; stroke:none;" d="M335 330L336 331L335 330z"/>
<path style="fill:#b19b5b; stroke:none;" d="M408 330L408 333L409 333L408 330M289 331L290 332L289 331z"/>
<path style="fill:#6b5e4b; stroke:none;" d="M328 331L329 332L328 331z"/>
<path style="fill:#b19b5b; stroke:none;" d="M290 332L291 333L290 332M336 332L337 333L336 332z"/>
<path style="fill:#6b5e4b; stroke:none;" d="M330 333L331 334L330 333z"/>
<path style="fill:#b19b5b; stroke:none;" d="M337 333L338 334L337 333M409.333 333.667L409.667 334.333L409.333 333.667M292 334L293 335L292 334M338 334L339 335L338 334z"/>
<path style="fill:#6b5e4b; stroke:none;" d="M294 335L295 336L294 335M336 335L337 336L336 335M338 335L339 336L338 335z"/>
<path style="fill:#b19b5b; stroke:none;" d="M362 335L363 336L362 335z"/>
<path style="fill:#6b5e4b; stroke:none;" d="M339 336L340 337L339 336z"/>
<path style="fill:#ffffff; stroke:none;" d="M340 336L341 337L340 336z"/>
<path style="fill:#b19b5b; stroke:none;" d="M410 336L410 340L411 340L410 336M297 337L298 338L297 337z"/>
<path style="fill:#6b5e4b; stroke:none;" d="M311 337L312 338L311 337z"/>
<path style="fill:#b19b5b; stroke:none;" d="M299 338L300 339L299 338z"/>
<path style="fill:#6b5e4b; stroke:none;" d="M309 338L310 339L309 338M340 338L341 339L340 338z"/>
<path style="fill:#b19b5b; stroke:none;" d="M301 339L302 340L301 339z"/>
<path style="fill:#6b5e4b; stroke:none;" d="M302 339L303 340L302 339M311 339L312 340L311 339z"/>
<path style="fill:#b19b5b; stroke:none;" d="M303 340L304 341L303 340z"/>
<path style="fill:#6b5e4b; stroke:none;" d="M304 340L305 341L304 340z"/>
<path style="fill:#b19b5b; stroke:none;" d="M341 340L342 341L341 340M411 340L413 350L414 350L411 340z"/>
<path style="fill:#6b5e4b; stroke:none;" d="M306 341L307 342L306 341z"/>
<path style="fill:#e2bf6a; stroke:none;" d="M412.333 341.667L412.667 342.333L412.333 341.667z"/>
<path style="fill:#b19b5b; stroke:none;" d="M308 342L309 343L308 342M310 343L311 344L310 343z"/>
<path style="fill:#6b5e4b; stroke:none;" d="M311 343L312 344L311 343M339 343L340 344L339 343z"/>
<path style="fill:#b19b5b; stroke:none;" d="M342 343L343 344L342 343z"/>
<path style="fill:#6b5e4b; stroke:none;" d="M313 344L314 345L313 344M342 344L343 345L342 344z"/>
<path style="fill:#b19b5b; stroke:none;" d="M364 344L365 345L364 344z"/>
<path style="fill:#6b5e4b; stroke:none;" d="M315 345L316 346L315 345z"/>
<path style="fill:#e2bf6a; stroke:none;" d="M413.333 345.667L413.667 346.333L413.333 345.667z"/>
<path style="fill:#b19b5b; stroke:none;" d="M316 346L317 347L316 346z"/>
<path style="fill:#6b5e4b; stroke:none;" d="M319 346L320 347L319 346z"/>
<path style="fill:#b19b5b; stroke:none;" d="M317 347L318 348L317 347M318 348L319 349L318 348z"/>
<path style="fill:#6b5e4b; stroke:none;" d="M319.333 349.667L319.667 350.333L319.333 349.667z"/>
<path style="fill:#b19b5b; stroke:none;" d="M319 351L319 354L320 354L319 351M414 351L414 356L415 356L414 351z"/>
<path style="fill:#6b5e4b; stroke:none;" d="M340 352L341 353L340 352z"/>
<path style="fill:#b19b5b; stroke:none;" d="M366 352L366 355L367 355L366 352M408 352L409 353L408 352M410 352L411 353L410 352z"/>
<path style="fill:#6b5e4b; stroke:none;" d="M319 354L320 355L319 354z"/>
<path style="fill:#b19b5b; stroke:none;" d="M286.667 356.333L287.333 356.667L286.667 356.333M415 356L415 359L416 359L415 356M289 357L290 358L289 357z"/>
<path style="fill:#ffffff; stroke:none;" d="M291 357L292 358L291 357M316 357L317 358L316 357z"/>
<path style="fill:#6b5e4b; stroke:none;" d="M318 357L319 358L318 357M342 357L343 358L342 357M291 358L292 359L291 358z"/>
<path style="fill:#b19b5b; stroke:none;" d="M292 358L293 359L292 358z"/>
<path style="fill:#6b5e4b; stroke:none;" d="M317 358L318 359L317 358z"/>
<path style="fill:#b19b5b; stroke:none;" d="M342 358L343 359L342 358M285 359L286 360L285 359z"/>
<path style="fill:#6b5e4b; stroke:none;" d="M294 359L295 360L294 359z"/>
<path style="fill:#b19b5b; stroke:none;" d="M295 359L296 360L295 359M315 359L316 360L315 359z"/>
<path style="fill:#ffffff; stroke:none;" d="M284 360L285 361L284 360z"/>
<path style="fill:#6b5e4b; stroke:none;" d="M298 360L299 361L298 360z"/>
<path style="fill:#b19b5b; stroke:none;" d="M299.667 360.333L300.333 360.667L299.667 360.333z"/>
<path style="fill:#ffffff; stroke:none;" d="M306.667 360.333L307.333 360.667L306.667 360.333z"/>
<path style="fill:#b19b5b; stroke:none;" d="M312 360L313 361L312 360z"/>
<path style="fill:#6b5e4b; stroke:none;" d="M313 360L314 361L313 360M337 360L338 361L337 360z"/>
<path style="fill:#b19b5b; stroke:none;" d="M367 360L368 361L367 360M416 360L416 365L417 365L416 360z"/>
<path style="fill:#6b5e4b; stroke:none;" d="M341 361L342 362L341 361z"/>
<path style="fill:#b19b5b; stroke:none;" d="M284 362L285 363L284 362z"/>
<path style="fill:#6b5e4b; stroke:none;" d="M284 363L285 364L284 363z"/>
<path style="fill:#b19b5b; stroke:none;" d="M340 364L341 365L340 364M283 366L284 367L283 366M339 366L340 367L339 366M417.333 366.667L417.667 367.333L417.333 366.667z"/>
<path style="fill:#6b5e4b; stroke:none;" d="M283 367L284 368L283 367M338 367L339 368L338 367z"/>
<path style="fill:#b19b5b; stroke:none;" d="M416.333 368.667L416.667 369.333L416.333 368.667z"/>
<path style="fill:#6b5e4b; stroke:none;" d="M332 369L333 370L332 369z"/>
<path style="fill:#b19b5b; stroke:none;" d="M337 369L336 371L337 369M282 370L283 371L282 370z"/>
<path style="fill:#ffffff; stroke:none;" d="M337 370L338 371L337 370z"/>
<path style="fill:#6b5e4b; stroke:none;" d="M282 371L283 372L282 371z"/>
<path style="fill:#b19b5b; stroke:none;" d="M335 371L336 372L335 371M418 371L418 376L419 376L418 371M334 372L333 374L334 372z"/>
<path style="fill:#ffffff; stroke:none;" d="M334 373L335 374L334 373z"/>
<path style="fill:#6b5e4b; stroke:none;" d="M329 374L330 375L329 374M331 374L332 375L331 374z"/>
<path style="fill:#b19b5b; stroke:none;" d="M330 375L331 376L330 375z"/>
<path style="fill:#6b5e4b; stroke:none;" d="M284 376L285 377L284 376M307 376L308 377L307 376z"/>
<path style="fill:#b19b5b; stroke:none;" d="M328 376L329 377L328 376M417 376L417 380L418 380L417 376z"/>
<path style="fill:#ffffff; stroke:none;" d="M284 377L285 378L284 377z"/>
<path style="fill:#b19b5b; stroke:none;" d="M286 377L287 378L286 377z"/>
<path style="fill:#6b5e4b; stroke:none;" d="M287 377L288 378L287 377M305 377L306 378L305 377z"/>
<path style="fill:#b19b5b; stroke:none;" d="M326 377L327 378L326 377M289 378L290 379L289 378z"/>
<path style="fill:#6b5e4b; stroke:none;" d="M290 378L291 379L290 378M323 378L324 379L323 378z"/>
<path style="fill:#b19b5b; stroke:none;" d="M324 378L325 379L324 378M293 379L294 380L293 379z"/>
<path style="fill:#6b5e4b; stroke:none;" d="M294 379L295 380L294 379M321.333 379.667L321.667 380.333L321.333 379.667z"/>
<path style="fill:#b19b5b; stroke:none;" d="M298.667 380.333L299.333 380.667L298.667 380.333z"/>
<path style="fill:#6b5e4b; stroke:none;" d="M300 380L300 381L305 381L300 380M306 380L307 381L306 380M311 380L312 381L311 380z"/>
<path style="fill:#ffffff; stroke:none;" d="M305 381L306 382L305 381z"/>
<path style="fill:#b19b5b; stroke:none;" d="M419 381L418 400L419 400L419 381z"/>
<path style="fill:#6b5e4b; stroke:none;" d="M310 382L311 383L310 382z"/>
<path style="fill:#b19b5b; stroke:none;" d="M371 384L371 392L372 392L371 384z"/>
<path style="fill:#ffffff; stroke:none;" d="M322 392L323 393L322 392z"/>
<path style="fill:#b19b5b; stroke:none;" d="M218 394L220 403L221 403L222 398L221 398L219 400L218 394M307 394L308 395L307 394z"/>
<path style="fill:#6b5e4b; stroke:none;" d="M308.667 394.333L309.333 394.667L308.667 394.333z"/>
<path style="fill:#b19b5b; stroke:none;" d="M320.667 394.333L321.333 394.667L320.667 394.333z"/>
<path style="fill:#ffffff; stroke:none;" d="M309 395L310 396L309 395M318.667 395.333L319.333 395.667L318.667 395.333z"/>
<path style="fill:#b19b5b; stroke:none;" d="M223 400L224 401L223 400M418 401L418 404L419 404L418 401M222 404L226 408L222 404M232 404L241 406L241 405L232 404M417 405L417 408L418 408L417 405M227 408L227 409L231 409L227 408M232.667 408.333L233.333 408.667L232.667 408.333M409.333 408.667L409.667 409.333L409.333 408.667M412.333 409.667L412.667 410.333L412.333 409.667M416.333 409.667L416.667 410.333L416.333 409.667M415 411L413 416L415 411M365 413L366 414L365 413M408 415L409 416L408 415M242 416C245.024 425.47 251.843 427.694 261 426L261 425C250.531 425.797 249.136 422.856 242 416M412 416L411 418L412 416M413 417L414 418L413 417M408 418L409 419L408 418M412.333 418.667L412.667 419.333L412.333 418.667M409 420L410 421L409 420M411 420L412 421L411 420M410.333 421.667L410.667 422.333L410.333 421.667M248 422L249 423L248 422M408 422L409 423L408 422M251 423L252 424L251 423M262 423L262 424L265 424L262 423M409 423L410 424L409 423M255 424L256 425L255 424M405 424L405 425L409 425L409 424L405 424M400 425L401 426L400 425M403 425L404 426L403 425M351 427L352 428L351 427M401 431L406 428L401 431M343 431L344 432L343 431M400 431L401 432L400 431M397 432L397 433L400 433L397 432M389 433L390 434L389 433M393 434L393 435L397 434L393 434M384 434L385 435L384 434M334.667 435.333L335.333 435.667L334.667 435.333M392 435L393 436L392 435M384 436L382 437L382 438L384 436M386 437L386 438L389 438L386 437M326.667 438.333L327.333 438.667L326.667 438.333M377 439L377 440L382 439L377 439M384 438L385 439L384 438M323 439L324 440L323 439M369 440L369 441L376 441L369 440M308 442L308 443L357 442L343 442L308 442M362 441L362 442L368 442L362 441z"/>
</svg>
